<svg width="23" height="30" viewBox="0 0 23 30" fill="none" xmlns="http://www.w3.org/2000/svg">
<mask id="path-1-inside-1_12_16" fill="white">
<path d="M10.999 0C4.93573 0 2.64567e-06 4.93575 0 10.999C-3.77953e-06 21.6678 10.3789 29.7785 10.3789 29.7785C10.5561 29.9199 10.776 29.9969 11.0027 29.9969C11.2294 29.9969 11.4493 29.9199 11.6265 29.7785C11.6265 29.7785 22.0054 21.6678 22.0054 10.999C22.0054 4.93575 17.0623 0 10.999 0ZM10.999 2.00049C15.9814 2.00049 20.0049 6.01662 20.0049 10.999C20.0049 19.7269 12.1017 26.6226 11.0064 27.5566C9.91633 26.6273 2.00049 19.7303 2.00049 10.999C2.00049 6.01662 6.01661 2.00049 10.999 2.00049Z"/>
</mask>
<path d="M10.999 0C4.93573 0 2.64567e-06 4.93575 0 10.999C-3.77953e-06 21.6678 10.3789 29.7785 10.3789 29.7785C10.5561 29.9199 10.776 29.9969 11.0027 29.9969C11.2294 29.9969 11.4493 29.9199 11.6265 29.7785C11.6265 29.7785 22.0054 21.6678 22.0054 10.999C22.0054 4.93575 17.0623 0 10.999 0ZM10.999 2.00049C15.9814 2.00049 20.0049 6.01662 20.0049 10.999C20.0049 19.7269 12.1017 26.6226 11.0064 27.5566C9.91633 26.6273 2.00049 19.7303 2.00049 10.999C2.00049 6.01662 6.01661 2.00049 10.999 2.00049Z" fill="white"/>
<path d="M0 10.999L-3 10.999L-3 10.999L0 10.999ZM10.3789 29.7785L12.2501 27.4336L12.2382 27.4241L12.2262 27.4147L10.3789 29.7785ZM11.6265 29.7785V26.7785H10.5763L9.75535 27.4336L11.6265 29.7785ZM22.0054 10.999L25.0054 10.999L25.0054 10.999L22.0054 10.999ZM20.0049 10.999L23.0049 10.999L23.0049 10.999L20.0049 10.999ZM11.0064 27.5566L9.06011 29.8396L11.0066 31.499L12.953 29.8393L11.0064 27.5566ZM2.00049 10.999L5.00049 10.999L2.00049 10.999ZM10.999 -3C3.27887 -3 -3 3.2789 -3 10.999L3 10.999C3 6.5926 6.59259 3 10.999 3V-3ZM-3 10.999C-3 17.2876 0.038065 22.6258 2.81471 26.2227C4.22576 28.0506 5.63207 29.5106 6.6878 30.5165C7.21734 31.021 7.66322 31.4156 7.98356 31.6895C8.14385 31.8265 8.27309 31.9337 8.36608 32.0095C8.41259 32.0475 8.45007 32.0776 8.47787 32.0998C8.49178 32.1109 8.50327 32.12 8.51226 32.1271C8.51676 32.1307 8.52063 32.1337 8.52388 32.1362C8.5255 32.1375 8.52696 32.1387 8.52826 32.1397C8.52891 32.1402 8.52977 32.1409 8.53009 32.1411C8.53091 32.1418 8.53169 32.1424 10.3789 29.7785C12.2262 27.4147 12.2269 27.4153 12.2275 27.4158C12.2277 27.4159 12.2283 27.4164 12.2287 27.4167C12.2293 27.4172 12.2299 27.4176 12.2302 27.4179C12.2309 27.4184 12.2311 27.4185 12.2306 27.4181C12.2296 27.4174 12.2262 27.4147 12.2205 27.4101C12.209 27.401 12.1882 27.3843 12.1587 27.3602C12.0996 27.312 12.0059 27.2345 11.8824 27.1289C11.6351 26.9175 11.2701 26.5951 10.8267 26.1726C9.93634 25.3243 8.74791 24.0898 7.56422 22.5564C5.1514 19.4307 3 15.3792 3 10.999L-3 10.999ZM8.50781 32.1235C9.2166 32.6891 10.0963 32.9969 11.0027 32.9969V26.9969C11.4558 26.9969 11.8956 27.1508 12.2501 27.4336L8.50781 32.1235ZM11.0027 32.9969C11.9091 32.9969 12.7888 32.6891 13.4976 32.1235L9.75535 27.4336C10.1098 27.1508 10.5496 26.9969 11.0027 26.9969V32.9969ZM11.6265 29.7785C13.4737 32.1424 13.4745 32.1418 13.4753 32.1411C13.4756 32.1409 13.4765 32.1402 13.4772 32.1397C13.4785 32.1387 13.4799 32.1375 13.4815 32.1362C13.4848 32.1337 13.4887 32.1307 13.4931 32.1271C13.5021 32.12 13.5136 32.1109 13.5275 32.0998C13.5553 32.0776 13.5928 32.0475 13.6393 32.0095C13.7323 31.9337 13.8616 31.8265 14.0219 31.6895C14.3422 31.4157 14.7881 31.0211 15.3176 30.5165C16.3733 29.5106 17.7797 28.0506 19.1907 26.2227C21.9674 22.6258 25.0054 17.2876 25.0054 10.999L19.0054 10.999C19.0054 15.3792 16.854 19.4307 14.4412 22.5564C13.2575 24.0898 12.0691 25.3243 11.1788 26.1726C10.7353 26.5951 10.3703 26.9175 10.123 27.1289C9.99953 27.2345 9.90578 27.312 9.84674 27.3602C9.81723 27.3843 9.79643 27.401 9.78496 27.4101C9.77923 27.4147 9.77583 27.4174 9.77485 27.4181C9.77436 27.4185 9.77447 27.4184 9.7752 27.4179C9.77556 27.4176 9.77608 27.4172 9.77675 27.4167C9.77708 27.4164 9.77771 27.4159 9.77787 27.4158C9.77853 27.4153 9.77923 27.4147 11.6265 29.7785ZM25.0054 10.999C25.0054 3.27628 18.7165 -3 10.999 -3V3C15.4081 3 19.0054 6.59521 19.0054 10.999L25.0054 10.999ZM10.999 5.00049C14.3278 5.00049 17.0049 7.67667 17.0049 10.999L23.0049 10.999C23.0049 4.35656 17.6351 -0.999508 10.999 -0.999508V5.00049ZM17.0049 10.999C17.0049 14.473 15.4162 17.7634 13.4826 20.4466C11.5727 23.0967 9.52853 24.8742 9.05983 25.2739L12.953 29.8393C13.5796 29.305 16.0347 27.1676 18.3502 23.9545C20.642 20.7744 23.0049 16.253 23.0049 10.999L17.0049 10.999ZM12.9527 25.2736C12.4856 24.8754 10.4397 23.0987 8.52757 20.4483C6.59146 17.7647 5.00049 14.4736 5.00049 10.999L-0.999508 10.999C-0.99951 16.2557 1.36744 20.7788 3.66176 23.9588C5.98004 27.1721 8.43716 29.3085 9.06011 29.8396L12.9527 25.2736ZM5.00049 10.999C5.00049 7.67347 7.67347 5.00049 10.999 5.00049V-0.999508C4.35976 -0.999508 -0.999505 4.35976 -0.999508 10.999L5.00049 10.999Z" fill="white" mask="url(#path-1-inside-1_12_16)"/>
<mask id="path-3-inside-2_12_16" fill="white">
<path d="M10.999 6.00146C8.24943 6.00146 6.00147 8.24944 6.00146 10.999C6.00145 13.7486 8.24941 16.0039 10.999 16.0039C13.7486 16.0039 16.0039 13.7486 16.0039 10.999C16.0039 8.24944 13.7486 6.00146 10.999 6.00146ZM10.999 8.00196C12.6677 8.00196 14.0034 9.3303 14.0034 10.999C14.0034 12.6677 12.6677 14.0034 10.999 14.0034C9.3303 14.0034 8.00195 12.6677 8.00196 10.999C8.00196 9.3303 9.33031 8.00196 10.999 8.00196Z"/>
</mask>
<path d="M10.999 6.00146C8.24943 6.00146 6.00147 8.24944 6.00146 10.999C6.00145 13.7486 8.24941 16.0039 10.999 16.0039C13.7486 16.0039 16.0039 13.7486 16.0039 10.999C16.0039 8.24944 13.7486 6.00146 10.999 6.00146ZM10.999 8.00196C12.6677 8.00196 14.0034 9.3303 14.0034 10.999C14.0034 12.6677 12.6677 14.0034 10.999 14.0034C9.3303 14.0034 8.00195 12.6677 8.00196 10.999C8.00196 9.3303 9.33031 8.00196 10.999 8.00196Z" fill="white"/>
<path d="M6.00146 10.999L9.00146 10.999L9.00146 10.999L6.00146 10.999ZM16.0039 10.999L13.0039 10.999L13.0039 10.999L16.0039 10.999ZM14.0034 10.999L11.0034 10.999L11.0034 10.999L14.0034 10.999ZM8.00196 10.999L11.002 10.999L11.002 10.999L8.00196 10.999ZM10.999 3.00146C6.59257 3.00146 3.00148 6.59259 3.00146 10.999L9.00146 10.999C9.00147 9.90628 9.9063 9.00146 10.999 9.00146V3.00146ZM3.00146 10.999C3.00144 15.3997 6.58683 19.0039 10.999 19.0039V13.0039C9.912 13.0039 9.00146 12.0975 9.00146 10.999L3.00146 10.999ZM10.999 19.0039C15.4054 19.0039 19.004 15.4055 19.0039 10.999L13.0039 10.999C13.0039 12.0917 12.0918 13.0039 10.999 13.0039V19.0039ZM19.0039 10.999C19.0039 6.58684 15.3997 3.00146 10.999 3.00146V9.00146C12.0975 9.00146 13.0039 9.91204 13.0039 10.999L19.0039 10.999ZM10.999 11.002C11.0081 11.002 11.0128 11.0028 11.014 11.0031C11.0154 11.0033 11.0153 11.0034 11.0143 11.003C11.0124 11.0022 11.0107 11.0011 11.0093 10.9996C11.0078 10.9982 11.0057 10.9955 11.0039 10.9913C11.0035 10.9903 11.0032 10.9895 11.003 10.9888C11.0028 10.9881 11.0027 10.9877 11.0027 10.9878C11.0027 10.9879 11.0029 10.9887 11.0031 10.9904C11.0032 10.992 11.0034 10.9948 11.0034 10.999L17.0034 10.999C17.0034 7.66383 14.3149 5.00196 10.999 5.00196V11.002ZM11.0034 10.999C11.0034 11.007 11.0027 11.0107 11.0026 11.0111C11.0025 11.0117 11.0026 11.011 11.0031 11.0098C11.0041 11.0074 11.0052 11.0061 11.0057 11.0057C11.0061 11.0052 11.0074 11.0041 11.0098 11.0031C11.011 11.0026 11.0117 11.0025 11.0111 11.0026C11.0107 11.0027 11.007 11.0034 10.999 11.0034V17.0034C14.3246 17.0034 17.0035 14.3246 17.0034 10.999L11.0034 10.999ZM10.999 11.0034C10.9948 11.0034 10.992 11.0032 10.9904 11.0031C10.9887 11.0029 10.9879 11.0027 10.9878 11.0027C10.9877 11.0027 10.9881 11.0028 10.9888 11.003C10.9895 11.0032 10.9903 11.0035 10.9913 11.0039C10.9955 11.0057 10.9982 11.0078 10.9996 11.0093C11.0011 11.0107 11.0022 11.0124 11.003 11.0143C11.0034 11.0153 11.0033 11.0154 11.0031 11.014C11.0028 11.0128 11.002 11.0081 11.002 10.999L5.00196 10.999C5.00194 14.3149 7.66383 17.0034 10.999 17.0034V11.0034ZM11.002 10.999C11.002 10.9899 11.0028 10.9856 11.0029 10.9849C11.0031 10.9841 11.003 10.985 11.0022 10.9868C11.0007 10.9904 10.9985 10.9936 10.996 10.996C10.9936 10.9985 10.9904 11.0007 10.9868 11.0022C10.985 11.003 10.9841 11.0031 10.9849 11.0029C10.9855 11.0028 10.9899 11.002 10.999 11.002V5.00196C7.67345 5.00196 5.00197 7.67345 5.00196 10.999L11.002 10.999Z" fill="white" mask="url(#path-3-inside-2_12_16)"/>
</svg>
