<svg width="34" height="35" viewBox="0 0 34 35" fill="none" xmlns="http://www.w3.org/2000/svg">
<path d="M29.6702 23.3334H11.8783C11.583 23.3339 11.2965 23.2335 11.0656 23.0489C10.8346 22.8643 10.6732 22.6063 10.6076 22.3173L7.61179 9.21582C7.56798 9.02445 7.56771 8.8256 7.61103 8.63411C7.65435 8.44261 7.74013 8.26338 7.86199 8.10976C7.98385 7.95614 8.13865 7.83208 8.31488 7.74683C8.49111 7.66157 8.68427 7.61729 8.87985 7.61731H32.6686C32.8644 7.6169 33.0578 7.66089 33.2344 7.74598C33.4109 7.83106 33.5661 7.95507 33.6882 8.10874C33.8104 8.26241 33.8964 8.44177 33.9398 8.63346C33.9833 8.82516 33.9831 9.02419 33.9392 9.21582L30.9382 22.3173C30.8728 22.6058 30.7117 22.8635 30.4813 23.048C30.2509 23.2326 29.965 23.3333 29.6702 23.3334ZM12.9139 20.7214H28.6345L31.0345 10.2319H10.5131L12.9139 20.7214Z" fill="white"/>
<path d="M14.424 35C13.4379 35 12.474 34.7065 11.6542 34.1566C10.8343 33.6067 10.1953 32.8251 9.81794 31.9107C9.44064 30.9962 9.34194 29.9899 9.53423 29.0192C9.72661 28.0484 10.2015 27.1567 10.8987 26.4568C11.5959 25.7569 12.4842 25.2803 13.4513 25.0871C14.4184 24.8941 15.4209 24.9932 16.3319 25.3719C17.2429 25.7508 18.0215 26.3922 18.5693 27.2152C19.1171 28.0381 19.4095 29.0057 19.4095 29.9955C19.4081 31.3224 18.8824 32.5945 17.9478 33.5327C17.0131 34.4709 15.7458 34.9986 14.424 35ZM14.424 27.6038C13.9526 27.6038 13.4917 27.7442 13.0997 28.0071C12.7078 28.2701 12.4022 28.6437 12.2219 29.081C12.0415 29.5182 11.9944 29.9993 12.0864 30.4635C12.1784 30.9276 12.4055 31.3539 12.7389 31.6885C13.0723 32.0231 13.4971 32.2508 13.9595 32.343C14.4219 32.4352 14.9012 32.3878 15.3367 32.2065C15.7722 32.0253 16.1444 31.7185 16.4062 31.325C16.668 30.9314 16.8076 30.4687 16.8075 29.9955C16.8068 29.3612 16.5554 28.7532 16.1085 28.3048C15.6617 27.8564 15.0558 27.6043 14.424 27.6038Z" fill="white"/>
<path d="M27.1237 35C26.1377 35 25.1737 34.7065 24.3539 34.1566C23.534 33.6067 22.895 32.8251 22.5176 31.9107C22.1403 30.9962 22.0416 29.9899 22.2339 29.0192C22.4263 28.0484 22.9012 27.1567 23.5984 26.4568C24.2956 25.7569 25.184 25.2803 26.151 25.0871C27.1181 24.8941 28.1206 24.9932 29.0316 25.3719C29.9426 25.7508 30.7212 26.3922 31.269 27.2152C31.8168 28.0381 32.1092 29.0057 32.1092 29.9955C32.1078 31.3224 31.5821 32.5945 30.6475 33.5327C29.7128 34.4709 28.4455 34.9986 27.1237 35ZM27.1237 27.6038C26.6523 27.6038 26.1914 27.7442 25.7994 28.0071C25.4075 28.2701 25.1019 28.6437 24.9216 29.081C24.7412 29.5182 24.6941 29.9993 24.7861 30.4635C24.8781 30.9276 25.1052 31.3539 25.4386 31.6885C25.772 32.0231 26.1968 32.2508 26.6592 32.343C27.1216 32.4352 27.6009 32.3878 28.0364 32.2065C28.4719 32.0253 28.8441 31.7185 29.1059 31.325C29.3677 30.9314 29.5073 30.4687 29.5072 29.9955C29.5065 29.3612 29.2551 28.7532 28.8083 28.3048C28.3614 27.8564 27.7556 27.6043 27.1237 27.6038Z" fill="white"/>
<path d="M8.8799 10.2292C8.6068 10.2292 8.34064 10.1429 8.11912 9.98257C7.8976 9.82229 7.73196 9.59601 7.64566 9.33595L5.41571 2.61194H1.30102C0.955964 2.61194 0.625048 2.47435 0.38106 2.22943C0.137071 1.98452 0 1.65233 0 1.30597C0 0.959609 0.137071 0.627426 0.38106 0.38251C0.625048 0.137593 0.955964 0 1.30102 0H6.35765C6.63075 2.5364e-05 6.89691 0.0863135 7.11843 0.246639C7.33995 0.406965 7.50559 0.633197 7.59189 0.893284L10.1185 8.51057C10.1836 8.7069 10.2013 8.91586 10.1702 9.12037C10.1391 9.32497 10.06 9.51913 9.93954 9.68699C9.81897 9.85476 9.66042 9.99146 9.47698 10.0857C9.29354 10.18 9.09032 10.2292 8.88423 10.2292H8.8799Z" fill="white"/>
</svg>
