<svg width="48" height="37" viewBox="0 0 48 37" fill="none" xmlns="http://www.w3.org/2000/svg">
<mask id="path-1-inside-1_10_6" fill="white">
<path d="M47.4 4.99998L45.5 3.09998L27.9 20.7C25.7 22.9 22 22.9 19.8 20.7L2.19999 3.19998L0.299988 5.09998L13.4 18.2L0.299988 31.3L2.19999 33.2L15.3 20.1L17.9 22.7C19.5 24.3 21.6 25.2 23.8 25.2C26 25.2 28.1 24.3 29.7 22.7L32.3 20.1L45.4 33.2L47.3 31.3L34.2 18.2L47.4 4.99998Z"/>
</mask>
<path d="M47.4 4.99998L45.5 3.09998L27.9 20.7C25.7 22.9 22 22.9 19.8 20.7L2.19999 3.19998L0.299988 5.09998L13.4 18.2L0.299988 31.3L2.19999 33.2L15.3 20.1L17.9 22.7C19.5 24.3 21.6 25.2 23.8 25.2C26 25.2 28.1 24.3 29.7 22.7L32.3 20.1L45.4 33.2L47.3 31.3L34.2 18.2L47.4 4.99998Z" fill="white"/>
<path d="M47.4 4.99998L49.5213 7.12131L51.6426 4.99999L49.5213 2.87867L47.4 4.99998ZM45.5 3.09998L47.6213 0.97866L45.5 -1.14267L43.3787 0.978656L45.5 3.09998ZM27.9 20.7L30.0213 22.8213L30.0213 22.8213L27.9 20.7ZM19.8 20.7L21.9213 18.5787L21.9153 18.5726L19.8 20.7ZM2.19999 3.19998L4.31526 1.07263L2.19396 -1.03662L0.0786732 1.07866L2.19999 3.19998ZM0.299988 5.09998L-1.82133 2.97865L-3.94266 5.09997L-1.82133 7.2213L0.299988 5.09998ZM13.4 18.2L15.5213 20.3213L17.6426 18.2L15.5213 16.0787L13.4 18.2ZM0.299988 31.3L-1.82133 29.1787L-3.94266 31.3L-1.82133 33.4213L0.299988 31.3ZM2.19999 33.2L0.0786732 35.3213L2.19999 37.4426L4.32131 35.3213L2.19999 33.2ZM15.3 20.1L17.4213 17.9787L15.3 15.8573L13.1787 17.9787L15.3 20.1ZM17.9 22.7L15.7787 24.8213L15.7787 24.8213L17.9 22.7ZM29.7 22.7L31.8213 24.8213L31.8213 24.8213L29.7 22.7ZM32.3 20.1L34.4213 17.9787L32.3 15.8573L30.1787 17.9787L32.3 20.1ZM45.4 33.2L43.2787 35.3213L45.4 37.4426L47.5213 35.3213L45.4 33.2ZM47.3 31.3L49.4213 33.4213L51.5426 31.3L49.4213 29.1787L47.3 31.3ZM34.2 18.2L32.0787 16.0787L29.9573 18.2L32.0787 20.3213L34.2 18.2ZM49.5213 2.87867L47.6213 0.97866L43.3787 5.22129L45.2787 7.1213L49.5213 2.87867ZM43.3787 0.978656L25.7787 18.5787L30.0213 22.8213L47.6213 5.2213L43.3787 0.978656ZM25.7787 18.5787C24.7502 19.6071 22.9497 19.6071 21.9213 18.5787L17.6787 22.8213C21.0502 26.1929 26.6497 26.1929 30.0213 22.8213L25.7787 18.5787ZM21.9153 18.5726L4.31526 1.07263L0.0847211 5.32734L17.6847 22.8273L21.9153 18.5726ZM0.0786732 1.07866L-1.82133 2.97865L2.4213 7.2213L4.32131 5.32131L0.0786732 1.07866ZM-1.82133 7.2213L11.2787 20.3213L15.5213 16.0787L2.42131 2.97866L-1.82133 7.2213ZM11.2787 16.0787L-1.82133 29.1787L2.42131 33.4213L15.5213 20.3213L11.2787 16.0787ZM-1.82133 33.4213L0.0786732 35.3213L4.32131 31.0787L2.4213 29.1787L-1.82133 33.4213ZM4.32131 35.3213L17.4213 22.2213L13.1787 17.9787L0.0786684 31.0787L4.32131 35.3213ZM13.1787 22.2213L15.7787 24.8213L20.0213 20.5787L17.4213 17.9787L13.1787 22.2213ZM15.7787 24.8213C17.9129 26.9555 20.7651 28.2 23.8 28.2V22.2C22.4349 22.2 21.0871 21.6444 20.0213 20.5787L15.7787 24.8213ZM23.8 28.2C26.8349 28.2 29.6871 26.9555 31.8213 24.8213L27.5787 20.5787C26.5129 21.6444 25.1651 22.2 23.8 22.2V28.2ZM31.8213 24.8213L34.4213 22.2213L30.1787 17.9787L27.5787 20.5787L31.8213 24.8213ZM30.1787 22.2213L43.2787 35.3213L47.5213 31.0787L34.4213 17.9787L30.1787 22.2213ZM47.5213 35.3213L49.4213 33.4213L45.1787 29.1787L43.2787 31.0787L47.5213 35.3213ZM49.4213 29.1787L36.3213 16.0787L32.0787 20.3213L45.1787 33.4213L49.4213 29.1787ZM36.3213 20.3213L49.5213 7.12131L45.2787 2.87866L32.0787 16.0787L36.3213 20.3213Z" fill="white" mask="url(#path-1-inside-1_10_6)"/>
<mask id="path-3-inside-2_10_6" fill="white">
<path d="M43.7 36.6H4.2C1.9 36.6 0 34.7 0 32.4V4.2C0 1.9 1.9 0 4.2 0H43.7C46 0 47.9 1.9 47.9 4.2V32.4C47.9 34.7 46 36.6 43.7 36.6ZM4.1 2.7C3.3 2.7 2.7 3.29999 2.7 4.09999V32.3C2.7 33.1 3.3 33.7 4.1 33.7H43.6C44.4 33.7 45 33.1 45 32.3V4.09999C45 3.29999 44.4 2.7 43.6 2.7H4.1Z"/>
</mask>
<path d="M43.7 36.6H4.2C1.9 36.6 0 34.7 0 32.4V4.2C0 1.9 1.9 0 4.2 0H43.7C46 0 47.9 1.9 47.9 4.2V32.4C47.9 34.7 46 36.6 43.7 36.6ZM4.1 2.7C3.3 2.7 2.7 3.29999 2.7 4.09999V32.3C2.7 33.1 3.3 33.7 4.1 33.7H43.6C44.4 33.7 45 33.1 45 32.3V4.09999C45 3.29999 44.4 2.7 43.6 2.7H4.1Z" fill="white"/>
<path d="M43.7 33.6H4.2V39.6H43.7V33.6ZM4.2 33.6C3.55685 33.6 3 33.0431 3 32.4H-3C-3 36.3569 0.243157 39.6 4.2 39.6V33.6ZM3 32.4V4.2H-3V32.4H3ZM3 4.2C3 3.55686 3.55685 3 4.2 3V-3C0.243157 -3 -3 0.243136 -3 4.2H3ZM4.2 3H43.7V-3H4.2V3ZM43.7 3C44.3432 3 44.9 3.55685 44.9 4.2H50.9C50.9 0.243139 47.6569 -3 43.7 -3V3ZM44.9 4.2V32.4H50.9V4.2H44.9ZM44.9 32.4C44.9 33.0431 44.3432 33.6 43.7 33.6V39.6C47.6569 39.6 50.9 36.3569 50.9 32.4H44.9ZM4.1 -0.300003C1.64314 -0.300003 -0.299995 1.64314 -0.299995 4.09999H5.7C5.7 4.47024 5.55164 4.891 5.22132 5.22131C4.891 5.55163 4.47025 5.7 4.1 5.7V-0.300003ZM-0.299995 4.09999V32.3H5.7V4.09999H-0.299995ZM-0.299995 32.3C-0.299995 34.7569 1.64314 36.7 4.1 36.7V30.7C4.47025 30.7 4.891 30.8484 5.22132 31.1787C5.55164 31.509 5.7 31.9298 5.7 32.3H-0.299995ZM4.1 36.7H43.6V30.7H4.1V36.7ZM43.6 36.7C46.0568 36.7 48 34.7569 48 32.3H42C42 31.9297 42.1484 31.509 42.4787 31.1787C42.809 30.8484 43.2298 30.7 43.6 30.7V36.7ZM48 32.3V4.09999H42V32.3H48ZM48 4.09999C48 1.64313 46.0568 -0.300003 43.6 -0.300003V5.7C43.2298 5.7 42.809 5.55163 42.4787 5.22132C42.1484 4.891 42 4.47025 42 4.09999H48ZM43.6 -0.300003H4.1V5.7H43.6V-0.300003Z" fill="white" mask="url(#path-3-inside-2_10_6)"/>
</svg>
