<svg width="49" height="57" viewBox="0 0 49 57" fill="none" xmlns="http://www.w3.org/2000/svg">
<g filter="url(#filter0_d_2_2)">
<path d="M38.4545 16C37.9545 14.4697 37.2955 13.0985 36.4773 11.8864C35.6742 10.6591 34.7121 9.61363 33.5909 8.75C32.4849 7.88636 31.2273 7.22727 29.8182 6.77272C28.4091 6.31818 26.8636 6.09091 25.1818 6.09091C22.4242 6.09091 19.9167 6.80303 17.6591 8.22727C15.4015 9.65151 13.6061 11.75 12.2727 14.5227C10.9394 17.2955 10.2727 20.697 10.2727 24.7273C10.2727 28.7576 10.947 32.1591 12.2955 34.9318C13.6439 37.7045 15.4697 39.803 17.7727 41.2273C20.0758 42.6515 22.6667 43.3636 25.5455 43.3636C28.2121 43.3636 30.5606 42.7955 32.5909 41.6591C34.6364 40.5076 36.2273 38.8864 37.3636 36.7955C38.5152 34.6894 39.0909 32.2121 39.0909 29.3636L40.8182 29.7273H26.8182V24.7273H44.5455V29.7273C44.5455 33.5606 43.7273 36.8939 42.0909 39.7273C40.4697 42.5606 38.2273 44.7576 35.3636 46.3182C32.5152 47.8636 29.2424 48.6364 25.5455 48.6364C21.4242 48.6364 17.803 47.6667 14.6818 45.7273C11.5758 43.7879 9.15152 41.0303 7.40909 37.4545C5.68182 33.8788 4.81818 29.6364 4.81818 24.7273C4.81818 21.0455 5.31061 17.7348 6.29545 14.7955C7.29545 11.8409 8.70455 9.32576 10.5227 7.25C12.3409 5.17424 14.4924 3.58333 16.9773 2.47727C19.4621 1.37121 22.197 0.81818 25.1818 0.81818C27.6364 0.81818 29.9242 1.18939 32.0455 1.93182C34.1818 2.65909 36.0833 3.69697 37.75 5.04545C39.4318 6.37879 40.8333 7.97727 41.9545 9.84091C43.0758 11.6894 43.8485 13.7424 44.2727 16H38.4545Z" fill="white"/>
<path d="M38.4545 16L37.504 16.3106L37.7293 17H38.4545V16ZM36.4773 11.8864L35.6405 12.4339L35.6444 12.4399L35.6484 12.4458L36.4773 11.8864ZM33.5909 8.75L32.9755 9.53821L32.9807 9.54223L33.5909 8.75ZM29.8182 6.77272L30.1252 5.82102L30.1252 5.82102L29.8182 6.77272ZM12.2727 14.5227L13.1739 14.9561L13.1739 14.9561L12.2727 14.5227ZM12.2955 34.9318L11.3962 35.3692L11.3962 35.3692L12.2955 34.9318ZM17.7727 41.2273L17.2468 42.0778L17.7727 41.2273ZM32.5909 41.6591L33.0793 42.5317L33.0815 42.5305L32.5909 41.6591ZM37.3636 36.7955L36.4862 36.3157L36.485 36.3179L37.3636 36.7955ZM39.0909 29.3636L39.2969 28.3851L38.0909 28.1312V29.3636H39.0909ZM40.8182 29.7273V30.7273L41.0242 28.7487L40.8182 29.7273ZM26.8182 29.7273H25.8182V30.7273H26.8182V29.7273ZM26.8182 24.7273V23.7273H25.8182V24.7273H26.8182ZM44.5455 24.7273H45.5455V23.7273H44.5455V24.7273ZM42.0909 39.7273L41.225 39.2271L41.223 39.2306L42.0909 39.7273ZM35.3636 46.3182L35.8405 47.1971L35.8422 47.1963L35.3636 46.3182ZM14.6818 45.7273L14.1522 46.5755L14.154 46.5767L14.6818 45.7273ZM7.40909 37.4545L6.50864 37.8895L6.51014 37.8926L7.40909 37.4545ZM6.29545 14.7955L5.34823 14.4749L5.34726 14.4778L6.29545 14.7955ZM10.5227 7.25L11.275 7.90889L11.275 7.90889L10.5227 7.25ZM16.9773 2.47727L16.5706 1.56369L16.9773 2.47727ZM32.0455 1.93182L31.7151 2.87571L31.7232 2.87847L32.0455 1.93182ZM37.75 5.04545L37.121 5.8229L37.1288 5.82907L37.75 5.04545ZM41.9545 9.84091L41.0977 10.3564L41.0995 10.3595L41.9545 9.84091ZM44.2727 16V17H45.4782L45.2555 15.8153L44.2727 16ZM39.4051 15.6894C38.8792 14.0797 38.1812 12.6232 37.3061 11.3269L35.6484 12.4458C36.4098 13.5737 37.0299 14.8597 37.504 16.3106L39.4051 15.6894ZM37.3141 11.3388C36.452 10.0213 35.4142 8.89219 34.2011 7.95777L32.9807 9.54223C34.01 10.3351 34.8965 11.2968 35.6405 12.4339L37.3141 11.3388ZM34.2063 7.96181C33.0029 7.0221 31.6397 6.30956 30.1252 5.82102L29.5112 7.72443C30.8149 8.14498 31.9668 8.75063 32.9755 9.53819L34.2063 7.96181ZM30.1252 5.82102C28.6045 5.33046 26.9539 5.09091 25.1818 5.09091V7.09091C26.7734 7.09091 28.2137 7.3059 29.5112 7.72443L30.1252 5.82102ZM25.1818 5.09091C22.242 5.09091 19.5483 5.85305 17.1255 7.38151L18.1927 9.07303C20.285 7.75301 22.6065 7.09091 25.1818 7.09091V5.09091ZM17.1255 7.38151C14.686 8.92051 12.7736 11.1737 11.3715 14.0894L13.1739 14.9561C14.4386 12.3263 16.117 10.3825 18.1927 9.07303L17.1255 7.38151ZM11.3715 14.0894C9.95625 17.0325 9.27273 20.5915 9.27273 24.7273H11.2727C11.2727 20.8024 11.9225 17.5585 13.1739 14.9561L11.3715 14.0894ZM9.27273 24.7273C9.27273 28.8644 9.96429 32.425 11.3962 35.3692L13.1947 34.4945C11.9296 31.8932 11.2727 28.6508 11.2727 24.7273H9.27273ZM11.3962 35.3692C12.8157 38.288 14.7612 40.5407 17.2468 42.0778L18.2987 40.3768C16.1782 39.0654 14.4722 37.1211 13.1947 34.4945L11.3962 35.3692ZM17.2468 42.0778C19.7179 43.606 22.4931 44.3636 25.5455 44.3636V42.3636C22.8402 42.3636 20.4336 41.697 18.2987 40.3768L17.2468 42.0778ZM25.5455 44.3636C28.3578 44.3636 30.8792 43.7631 33.0793 42.5317L32.1025 40.7865C30.2421 41.8278 28.0664 42.3636 25.5455 42.3636V44.3636ZM33.0815 42.5305C35.2931 41.2854 37.0174 39.5266 38.2423 37.273L36.485 36.3179C35.4371 38.2461 33.9796 39.7297 32.1003 40.7877L33.0815 42.5305ZM38.241 37.2752C39.4868 34.9968 40.0909 32.3485 40.0909 29.3636H38.0909C38.0909 32.0758 37.5435 34.382 36.4862 36.3157L38.241 37.2752ZM38.8849 30.3422L40.6122 30.7058L41.0242 28.7487L39.2969 28.3851L38.8849 30.3422ZM40.8182 28.7273H26.8182V30.7273H40.8182V28.7273ZM27.8182 29.7273V24.7273H25.8182V29.7273H27.8182ZM26.8182 25.7273H44.5455V23.7273H26.8182V25.7273ZM43.5455 24.7273V29.7273H45.5455V24.7273H43.5455ZM43.5455 29.7273C43.5455 33.4154 42.7595 36.5702 41.225 39.2271L42.9569 40.2274C44.6951 37.2177 45.5455 33.7058 45.5455 29.7273H43.5455ZM41.223 39.2306C39.6936 41.9034 37.586 43.9682 34.8851 45.4401L35.8422 47.1963C38.8686 45.5469 41.2458 43.2178 42.9589 40.2239L41.223 39.2306ZM34.8868 45.4392C32.2042 46.8947 29.0996 47.6364 25.5455 47.6364V49.6364C29.3853 49.6364 32.8261 48.8326 35.8405 47.1971L34.8868 45.4392ZM25.5455 47.6364C21.5875 47.6364 18.1537 46.7072 15.2096 44.8779L14.154 46.5767C17.4524 48.6261 21.261 49.6364 25.5455 49.6364V47.6364ZM15.2114 44.879C12.2782 43.0476 9.97564 40.4387 8.30804 37.0165L6.51014 37.8926C8.32739 41.6219 10.8733 44.5282 14.1522 46.5755L15.2114 44.879ZM8.30954 37.0196C6.66141 33.6077 5.81818 29.5205 5.81818 24.7273H3.81818C3.81818 29.7522 4.70223 34.1499 6.50864 37.8895L8.30954 37.0196ZM5.81818 24.7273C5.81818 21.1337 6.29886 17.933 7.24365 15.1131L5.34726 14.4778C4.32236 17.5367 3.81818 20.9572 3.81818 24.7273H5.81818ZM7.24267 15.116C8.20601 12.2698 9.55395 9.87372 11.275 7.90889L9.77049 6.59111C7.85514 8.7778 6.3849 11.412 5.34824 14.4749L7.24267 15.116ZM11.275 7.90889C12.9992 5.94041 15.0333 4.43716 17.3839 3.39085L16.5706 1.56369C13.9515 2.72951 11.6826 4.40807 9.77049 6.59111L11.275 7.90889ZM17.3839 3.39085C19.7288 2.34711 22.3233 1.81818 25.1818 1.81818V-0.18182C22.0706 -0.18182 19.1955 0.395309 16.5706 1.56369L17.3839 3.39085ZM25.1818 1.81818C27.5342 1.81818 29.7094 2.17368 31.7151 2.87567L32.3758 0.987958C30.1391 0.205101 27.7385 -0.18182 25.1818 -0.18182V1.81818ZM31.7232 2.87847C33.7541 3.56983 35.5506 4.55224 37.121 5.82286L38.379 4.26804C36.6161 2.8417 34.6096 1.74835 32.3677 0.985166L31.7232 2.87847ZM37.1288 5.82907C38.7153 7.08688 40.0374 8.59416 41.0977 10.3564L42.8114 9.32539C41.6292 7.36038 40.1483 5.67069 38.3712 4.26184L37.1288 5.82907ZM41.0995 10.3595C42.1546 12.099 42.8865 14.0377 43.2899 16.1847L45.2555 15.8153C44.8105 13.4471 43.9969 11.2798 42.8096 9.3223L41.0995 10.3595ZM44.2727 15H38.4545V17H44.2727V15Z" fill="black"/>
</g>
<defs>
<filter id="filter0_d_2_2" x="0.818176" y="0.818176" width="47.7273" height="55.8182" filterUnits="userSpaceOnUse" color-interpolation-filters="sRGB">
<feFlood flood-opacity="0" result="BackgroundImageFix"/>
<feColorMatrix in="SourceAlpha" type="matrix" values="0 0 0 0 0 0 0 0 0 0 0 0 0 0 0 0 0 0 127 0" result="hardAlpha"/>
<feOffset dy="4"/>
<feGaussianBlur stdDeviation="2"/>
<feComposite in2="hardAlpha" operator="out"/>
<feColorMatrix type="matrix" values="0 0 0 0 0 0 0 0 0 0 0 0 0 0 0 0 0 0 0.25 0"/>
<feBlend mode="normal" in2="BackgroundImageFix" result="effect1_dropShadow_2_2"/>
<feBlend mode="normal" in="SourceGraphic" in2="effect1_dropShadow_2_2" result="shape"/>
</filter>
</defs>
</svg>
