<svg width="35" height="35" viewBox="0 0 35 35" fill="none" xmlns="http://www.w3.org/2000/svg">
<path d="M17.5 35C27.165 35 35 27.165 35 17.5C35 7.83502 27.165 0 17.5 0C7.83502 0 0 7.83502 0 17.5C0 27.165 7.83502 35 17.5 35Z" fill="white"/>
<path d="M17.5 17.2892C21.3427 17.2892 24.4578 14.1741 24.4578 10.3314C24.4578 6.48866 21.3427 3.37354 17.5 3.37354C13.6573 3.37354 10.5422 6.48866 10.5422 10.3314C10.5422 14.1741 13.6573 17.2892 17.5 17.2892Z" fill="black" fill-opacity="0.9"/>
<path d="M8.01208 24.4579C8.01208 20.9645 10.844 18.1326 14.3374 18.1326H20.241C23.7344 18.1326 26.5663 20.9645 26.5663 24.4579V29.9398H8.01208V24.4579Z" fill="black" fill-opacity="0.9"/>
</svg>
