<svg width="251" height="41" viewBox="0 0 251 41" fill="none" xmlns="http://www.w3.org/2000/svg">
<path d="M13.0859 10.6875C12.9557 10.7396 12.7995 10.7786 12.6172 10.8047C12.4349 10.8047 12.2786 10.8438 12.1484 10.9219C12.0964 11.1302 12.0443 11.3385 11.9922 11.5469C11.9661 11.7552 11.9792 11.9635 12.0312 12.1719C11.7708 12.7708 11.4453 13.3698 11.0547 13.9688C10.6901 14.5677 10.3255 15.1016 9.96094 15.5703C9.70052 16.5078 9.45312 17.3802 9.21875 18.1875C9.01042 18.9688 8.90625 19.9323 8.90625 21.0781C8.85417 21.2083 8.80208 21.3516 8.75 21.5078C8.69792 21.6641 8.67188 21.8464 8.67188 22.0547C8.67188 22.2109 8.71094 22.3542 8.78906 22.4844C8.89323 22.6146 8.94531 22.7578 8.94531 22.9141C8.9974 23.1484 8.95833 23.3828 8.82812 23.6172C8.72396 23.8516 8.67188 24.0859 8.67188 24.3203C8.67188 24.5026 8.71094 24.6589 8.78906 24.7891C8.86719 24.9193 8.88021 25.0755 8.82812 25.2578C9.16667 25.6224 9.50521 25.9089 9.84375 26.1172C10.2083 26.3255 10.5208 26.651 10.7812 27.0938C10.8594 27.0938 10.9766 27.1458 11.1328 27.25C11.3151 27.3542 11.5104 27.4714 11.7188 27.6016C11.9271 27.7057 12.1484 27.8229 12.3828 27.9531C12.6432 28.0573 12.8776 28.1224 13.0859 28.1484C13.3984 28.1745 13.6719 28.1745 13.9062 28.1484C14.1406 28.0964 14.4792 28.0443 14.9219 27.9922C16.0677 27.862 17.0833 27.4974 17.9688 26.8984C18.8542 26.2995 19.5573 25.6615 20.0781 24.9844C20.0781 24.4635 20.1302 24.0208 20.2344 23.6562C20.3385 23.2917 20.4948 22.9271 20.7031 22.5625C20.8333 22.3542 20.9766 22.1849 21.1328 22.0547C21.2891 21.9245 21.3802 21.7031 21.4062 21.3906C21.4323 21.2344 21.4323 21.0651 21.4062 20.8828C21.4062 20.6745 21.4193 20.4661 21.4453 20.2578C21.4714 20.0495 21.4193 19.8542 21.2891 19.6719C21.1589 19.4635 21.0677 19.2943 21.0156 19.1641C20.9635 18.9557 20.7682 18.7214 20.4297 18.4609C20.0911 18.2005 19.8177 17.9922 19.6094 17.8359C19.4271 17.7057 19.2318 17.5625 19.0234 17.4062C18.8151 17.25 18.6458 17.0938 18.5156 16.9375C18.4115 16.7812 18.3724 16.625 18.3984 16.4688C18.4245 16.2865 18.5938 16.1302 18.9062 16C19.4531 16.026 20.0391 16.0781 20.6641 16.1562C21.2891 16.2344 21.9271 16.3125 22.5781 16.3906C23.2552 16.4427 23.9193 16.4948 24.5703 16.5469C25.2214 16.599 25.8203 16.599 26.3672 16.5469C26.7318 16.5208 27.0182 16.4948 27.2266 16.4688C27.4349 16.4167 27.6172 16.3776 27.7734 16.3516C27.9297 16.2995 28.099 16.2474 28.2812 16.1953C28.4896 16.1432 28.763 16.0911 29.1016 16.0391C29.3099 16.013 29.4792 16.013 29.6094 16.0391C29.7656 16.0651 29.9089 16.0781 30.0391 16.0781C30.2214 16.026 30.4036 15.9609 30.5859 15.8828C30.7682 15.7786 30.9635 15.7135 31.1719 15.6875C31.4323 15.6615 31.6536 15.6615 31.8359 15.6875C32.0443 15.7135 32.2266 15.7526 32.3828 15.8047C32.5651 15.8568 32.7604 15.9089 32.9688 15.9609C33.1771 16.013 33.4245 16.0521 33.7109 16.0781C34.1797 16.1302 34.5312 16.1823 34.7656 16.2344C35.026 16.2865 35.1562 16.4948 35.1562 16.8594C35.1562 17.0938 35.0651 17.263 34.8828 17.3672C34.7266 17.4714 34.5182 17.5495 34.2578 17.6016C34.0234 17.6276 33.763 17.6536 33.4766 17.6797C33.2161 17.6797 32.9688 17.6927 32.7344 17.7188C32.474 17.7708 32.2786 17.8359 32.1484 17.9141C32.0182 17.9661 31.9141 18.0312 31.8359 18.1094C31.7578 18.1875 31.6797 18.2786 31.6016 18.3828C31.5495 18.4609 31.4453 18.526 31.2891 18.5781C31.1328 18.6302 30.9896 18.6953 30.8594 18.7734C30.7292 18.8255 30.5859 18.8776 30.4297 18.9297C30.0911 19.0599 29.8568 19.2682 29.7266 19.5547C29.5964 19.8411 29.4271 20.1406 29.2188 20.4531C29.0104 20.6875 28.8932 20.8958 28.8672 21.0781C28.8672 21.2344 28.7891 21.4167 28.6328 21.625C28.3724 22.0156 28.125 22.5234 27.8906 23.1484C27.6562 23.7734 27.4479 24.3333 27.2656 24.8281C26.9531 25.6875 26.7318 26.599 26.6016 27.5625C26.4974 28.5 26.3411 29.4115 26.1328 30.2969C26.0547 30.5833 26.0026 30.8828 25.9766 31.1953C25.9766 31.5339 25.9505 31.8594 25.8984 32.1719C25.8203 32.3802 25.7292 32.5885 25.625 32.7969C25.5469 33.0312 25.4948 33.2526 25.4688 33.4609C25.4167 33.6953 25.4036 33.9167 25.4297 34.125C25.4557 34.3594 25.4297 34.5938 25.3516 34.8281C25.2214 34.8802 25.0651 34.9323 24.8828 34.9844C24.7266 35.0365 24.6224 35.1146 24.5703 35.2188C24.4401 35.401 24.375 35.6745 24.375 36.0391C24.375 36.4297 24.2839 36.7292 24.1016 36.9375C23.9974 37.0677 23.8151 37.1849 23.5547 37.2891C23.3203 37.4193 23.125 37.5104 22.9688 37.5625C22.7604 37.6146 22.526 37.6016 22.2656 37.5234C22.0312 37.4453 21.7708 37.4193 21.4844 37.4453C21.1198 37.4714 20.8073 37.6016 20.5469 37.8359C20.2865 38.0703 19.987 38.2786 19.6484 38.4609C19.4401 38.5911 19.1406 38.7083 18.75 38.8125C18.3854 38.9167 18.0729 39.0339 17.8125 39.1641C17.6302 39.2682 17.4479 39.3724 17.2656 39.4766C17.1094 39.5807 16.9531 39.6589 16.7969 39.7109C16.6406 39.763 16.4844 39.776 16.3281 39.75C16.1719 39.724 16.0156 39.6198 15.8594 39.4375C15.7292 38.9948 15.7161 38.6172 15.8203 38.3047C15.9505 37.9922 16.1068 37.7057 16.2891 37.4453C16.4974 37.1849 16.7057 36.9245 16.9141 36.6641C17.1224 36.4036 17.2786 36.0911 17.3828 35.7266C17.513 35.2839 17.5911 34.8672 17.6172 34.4766C17.6693 34.112 17.7604 33.7474 17.8906 33.3828C18.099 32.9401 18.3594 32.5365 18.6719 32.1719C18.9844 31.8073 19.2057 31.3776 19.3359 30.8828C18.8932 31.0651 18.4115 31.2734 17.8906 31.5078C17.3958 31.7682 16.8099 31.9505 16.1328 32.0547C16.0286 32.0807 15.9245 32.0807 15.8203 32.0547C15.7161 32.0547 15.612 32.0547 15.5078 32.0547C15.2734 32.1068 15.0521 32.1589 14.8438 32.2109C14.6354 32.2891 14.4271 32.3542 14.2188 32.4062C13.9323 32.4323 13.7109 32.4193 13.5547 32.3672C13.4245 32.3411 13.2292 32.3281 12.9688 32.3281C12.3958 32.3542 11.9271 32.4062 11.5625 32.4844C11.1979 32.5625 10.7682 32.5495 10.2734 32.4453C9.98698 32.3932 9.67448 32.2891 9.33594 32.1328C9.02344 31.9766 8.71094 31.8333 8.39844 31.7031C8.08594 31.5729 7.76042 31.4557 7.42188 31.3516C7.08333 31.2474 6.78385 31.1302 6.52344 31C6.08073 30.7917 5.63802 30.5443 5.19531 30.2578C4.77865 29.9714 4.3099 29.75 3.78906 29.5938C3.26823 28.9167 2.76042 28.0964 2.26562 27.1328C1.77083 26.1693 1.45833 25.2057 1.32812 24.2422C1.30208 24.0078 1.30208 23.7734 1.32812 23.5391C1.35417 23.2786 1.34115 23.0312 1.28906 22.7969C1.23698 22.6667 1.15885 22.5365 1.05469 22.4062C0.976562 22.276 0.911458 22.1458 0.859375 22.0156C0.78125 21.8333 0.703125 21.5729 0.625 21.2344C0.572917 20.8958 0.520833 20.5964 0.46875 20.3359C0.338542 19.2422 0.351562 18.1615 0.507812 17.0938C0.664062 16 0.924479 15.0104 1.28906 14.125C1.3151 14.0469 1.36719 13.9818 1.44531 13.9297C1.52344 13.8516 1.58854 13.7604 1.64062 13.6562C1.69271 13.526 1.71875 13.4089 1.71875 13.3047C1.71875 13.1745 1.74479 13.0703 1.79688 12.9922C1.95312 12.7057 2.08333 12.4062 2.1875 12.0938C2.29167 11.7812 2.44792 11.4688 2.65625 11.1562C2.86458 10.7656 3.07292 10.362 3.28125 9.94531C3.48958 9.52865 3.73698 9.21615 4.02344 9.00781C4.20573 8.90365 4.38802 8.8125 4.57031 8.73438C4.77865 8.65625 4.97396 8.57812 5.15625 8.5C5.33854 8.39583 5.49479 8.27865 5.625 8.14844C5.78125 7.99219 5.88542 7.78385 5.9375 7.52344C5.96354 7.36719 5.9375 7.22396 5.85938 7.09375C5.78125 6.9375 5.78125 6.79427 5.85938 6.66406C6.66667 5.67448 7.70833 4.82812 8.98438 4.125C9.11458 4.07292 9.24479 4.02083 9.375 3.96875C9.53125 3.91667 9.67448 3.86458 9.80469 3.8125C9.98698 3.70833 10.1562 3.59115 10.3125 3.46094C10.4688 3.33073 10.6641 3.23958 10.8984 3.1875C11.3411 3.05729 11.7969 2.9401 12.2656 2.83594C12.7604 2.70573 13.2682 2.60156 13.7891 2.52344C13.9714 2.4974 14.1536 2.47135 14.3359 2.44531C14.5182 2.39323 14.6875 2.34115 14.8438 2.28906C15.1042 2.26302 15.4688 2.26302 15.9375 2.28906C16.4323 2.28906 16.9401 2.30208 17.4609 2.32812C18.0078 2.35417 18.5286 2.38021 19.0234 2.40625C19.5443 2.40625 19.9479 2.38021 20.2344 2.32812C20.4167 2.27604 20.5859 2.21094 20.7422 2.13281C20.9245 2.05469 21.1198 2.0026 21.3281 1.97656C21.7708 1.95052 22.1354 1.97656 22.4219 2.05469C22.7344 2.10677 23.1641 2.15885 23.7109 2.21094C24.0495 2.23698 24.375 2.27604 24.6875 2.32812C25.026 2.38021 25.3776 2.41927 25.7422 2.44531C26.1849 2.47135 26.6406 2.47135 27.1094 2.44531C27.5781 2.41927 28.0339 2.40625 28.4766 2.40625C28.9193 2.40625 29.349 2.43229 29.7656 2.48438C30.2083 2.53646 30.599 2.53646 30.9375 2.48438C31.1719 2.43229 31.3932 2.35417 31.6016 2.25C31.8099 2.14583 32.0312 2.10677 32.2656 2.13281C32.474 2.1849 32.6953 2.30208 32.9297 2.48438C33.1641 2.66667 33.2812 2.86198 33.2812 3.07031C33.2812 3.30469 33.099 3.5651 32.7344 3.85156C32.3958 4.13802 32.1094 4.33333 31.875 4.4375C31.1198 4.75 30.2995 4.9974 29.4141 5.17969C28.5286 5.33594 27.5651 5.45312 26.5234 5.53125C26.1849 5.55729 25.8464 5.57031 25.5078 5.57031C25.1953 5.57031 24.8958 5.59635 24.6094 5.64844C24.4531 5.70052 24.2969 5.76562 24.1406 5.84375C24.0104 5.89583 23.8802 5.94792 23.75 6C23.3854 6.10417 22.9948 6.15625 22.5781 6.15625C22.1875 6.15625 21.7969 6.18229 21.4062 6.23438C20.651 6.3125 19.8177 6.42969 18.9062 6.58594C18.0208 6.71615 17.3307 6.97656 16.8359 7.36719C16.7057 7.47135 16.5234 7.57552 16.2891 7.67969C16.0547 7.78385 15.8203 7.90104 15.5859 8.03125C15.3516 8.13542 15.1172 8.2526 14.8828 8.38281C14.6745 8.48698 14.5182 8.60417 14.4141 8.73438C14.1016 9.04688 13.8281 9.32031 13.5938 9.55469C13.3854 9.78906 13.2161 10.1667 13.0859 10.6875ZM40.9375 13.1875C41.4323 12.849 41.862 12.4583 42.2266 12.0156C42.5911 11.5729 42.9427 11.1302 43.2812 10.6875C43.4896 10.7135 43.6719 10.6745 43.8281 10.5703C43.9844 10.4661 44.1536 10.388 44.3359 10.3359C44.7005 10.2318 45.0651 10.2448 45.4297 10.375C45.8203 10.4792 46.1979 10.5182 46.5625 10.4922C47.0052 10.4401 47.4219 10.3229 47.8125 10.1406C48.2292 9.95833 48.7109 9.86719 49.2578 9.86719C49.4401 9.86719 49.6094 9.93229 49.7656 10.0625C49.9219 10.1667 50.0781 10.2318 50.2344 10.2578C50.4427 10.3099 50.625 10.2839 50.7812 10.1797C50.9635 10.0755 51.1589 10.0234 51.3672 10.0234C51.7318 10.0234 52.0052 10.1406 52.1875 10.375C52.3958 10.6094 52.6302 10.8438 52.8906 11.0781C53.0208 11.6771 53.0339 12.263 52.9297 12.8359C52.8255 13.4089 52.7995 13.9948 52.8516 14.5938C52.9036 14.9844 52.9557 15.362 53.0078 15.7266C53.0859 16.0911 53.125 16.4688 53.125 16.8594C53.151 17.1979 53.125 17.5625 53.0469 17.9531C52.9948 18.3177 52.9818 18.6823 53.0078 19.0469C53.0339 19.1771 53.0729 19.3073 53.125 19.4375C53.1771 19.5677 53.1901 19.6979 53.1641 19.8281C53.112 20.1146 52.9948 20.3359 52.8125 20.4922C52.6302 20.6484 52.526 20.8568 52.5 21.1172C52.4479 21.5078 52.526 21.8724 52.7344 22.2109C52.9688 22.5495 53.112 22.901 53.1641 23.2656C53.1901 23.4219 53.1771 23.5911 53.125 23.7734C53.0729 23.9557 53.0469 24.125 53.0469 24.2812C52.9948 24.8542 52.9948 25.4922 53.0469 26.1953C53.125 26.8984 53.1771 27.5495 53.2031 28.1484C53.2031 28.3568 53.2161 28.5651 53.2422 28.7734C53.2943 28.9818 53.2943 29.151 53.2422 29.2812C53.2161 29.4115 53.151 29.5156 53.0469 29.5938C52.9688 29.6719 52.9036 29.763 52.8516 29.8672C52.8255 29.9974 52.8255 30.1797 52.8516 30.4141C52.9036 30.6484 52.9297 30.8698 52.9297 31.0781C52.9297 31.2604 52.9167 31.4297 52.8906 31.5859C52.8646 31.7682 52.8516 31.9245 52.8516 32.0547C52.8776 32.1328 52.9036 32.2109 52.9297 32.2891C52.9818 32.3932 52.9948 32.4844 52.9688 32.5625C52.9167 32.7969 52.7344 33.0443 52.4219 33.3047C52.1354 33.5911 51.8359 33.7214 51.5234 33.6953C51.3672 33.6693 51.1328 33.5391 50.8203 33.3047C50.5339 33.0964 50.3255 32.9271 50.1953 32.7969C49.9609 32.5104 49.8177 32.1458 49.7656 31.7031C49.7135 31.2604 49.5964 30.8568 49.4141 30.4922C49.3359 30.362 49.2188 30.2448 49.0625 30.1406C48.9323 30.0104 48.8151 29.8672 48.7109 29.7109C48.5547 29.4245 48.4505 29.138 48.3984 28.8516C48.3464 28.5391 48.3073 28.2396 48.2812 27.9531C48.2812 27.6406 48.2682 27.3411 48.2422 27.0547C48.2161 26.7422 48.151 26.4297 48.0469 26.1172C47.9948 26.013 47.9167 25.9219 47.8125 25.8438C47.7083 25.7656 47.6172 25.6615 47.5391 25.5312C47.3828 25.2708 47.2786 25.0495 47.2266 24.8672C47.1745 24.6849 47.0052 24.5417 46.7188 24.4375C45.8073 24.4375 44.8828 24.4115 43.9453 24.3594C43.0339 24.3073 42.1354 24.3333 41.25 24.4375C41.0417 24.4635 40.8594 24.5156 40.7031 24.5938C40.5469 24.6458 40.3646 24.6849 40.1562 24.7109C40.0521 24.7109 39.9479 24.6979 39.8438 24.6719C39.7396 24.6458 39.6484 24.6328 39.5703 24.6328C39.2057 24.6849 38.8542 24.8542 38.5156 25.1406C38.1771 25.401 37.9167 25.6615 37.7344 25.9219C37.6302 26.0781 37.5651 26.2734 37.5391 26.5078C37.5391 26.7161 37.5 26.9245 37.4219 27.1328C37.3438 27.3411 37.2135 27.5365 37.0312 27.7188C36.849 27.875 36.7839 28.0833 36.8359 28.3438C36.5495 28.5521 36.3021 28.8125 36.0938 29.125C35.9115 29.4375 35.7292 29.763 35.5469 30.1016C35.3646 30.4141 35.1562 30.7135 34.9219 31C34.7135 31.2865 34.4531 31.4948 34.1406 31.625C34.0104 31.6771 33.8802 31.7422 33.75 31.8203C33.6458 31.8984 33.5286 31.9375 33.3984 31.9375C33.2682 31.9115 33.1901 31.8724 33.1641 31.8203C33.1641 31.7682 33.0859 31.6901 32.9297 31.5859C32.7734 31.4818 32.5911 31.3646 32.3828 31.2344C32.1484 31.1042 31.9271 30.9609 31.7188 30.8047C31.5104 30.6484 31.3281 30.4922 31.1719 30.3359C30.9896 30.1536 30.8594 29.9844 30.7812 29.8281C30.5729 29.3854 30.5339 29.0729 30.6641 28.8906C30.7943 28.6823 30.9635 28.4349 31.1719 28.1484C31.4583 27.7318 31.7839 27.263 32.1484 26.7422C32.513 26.2214 32.8385 25.7266 33.125 25.2578C33.2812 24.9974 33.4115 24.75 33.5156 24.5156C33.6458 24.2812 33.8021 24.0599 33.9844 23.8516C34.1927 23.5651 34.4531 23.3307 34.7656 23.1484C35.1042 22.9661 35.3385 22.7318 35.4688 22.4453C35.5208 22.3151 35.5469 22.1849 35.5469 22.0547C35.5469 21.8984 35.5729 21.7422 35.625 21.5859C35.8333 21.0651 36.1589 20.5964 36.6016 20.1797C37.0443 19.763 37.3828 19.2943 37.6172 18.7734C37.6693 18.6432 37.6953 18.526 37.6953 18.4219C37.7214 18.2917 37.7604 18.1615 37.8125 18.0312C38.2292 17.0677 38.737 16.2083 39.3359 15.4531C39.9609 14.6979 40.4948 13.9427 40.9375 13.1875ZM46.4062 13.0703C46.0938 13.3047 45.8203 13.5781 45.5859 13.8906C45.3776 14.1771 45.0911 14.3984 44.7266 14.5547C44.6224 14.7891 44.4922 15.0104 44.3359 15.2188C44.2057 15.4271 44.0234 15.5964 43.7891 15.7266C43.7109 16.1432 43.5547 16.5078 43.3203 16.8203C43.0859 17.1068 42.8646 17.3932 42.6562 17.6797C42.5521 17.7839 42.4609 17.901 42.3828 18.0312C42.3047 18.1354 42.2135 18.2526 42.1094 18.3828C41.9792 18.513 41.849 18.6172 41.7188 18.6953C41.5885 18.7474 41.4714 18.8255 41.3672 18.9297C41.2109 19.138 41.0417 19.4245 40.8594 19.7891C40.6771 20.1536 40.5078 20.4531 40.3516 20.6875C40.2214 20.8177 40.0911 20.9479 39.9609 21.0781C39.8307 21.2083 39.7917 21.3776 39.8438 21.5859C39.9219 21.7943 40.0781 21.9375 40.3125 22.0156C40.5469 22.0677 40.8073 22.1068 41.0938 22.1328C41.4062 22.1328 41.7057 22.1198 41.9922 22.0938C42.2786 22.0677 42.513 22.0547 42.6953 22.0547C43.0599 22.0547 43.4245 22.0677 43.7891 22.0938C44.1797 22.0938 44.5443 22.0807 44.8828 22.0547C45.2474 22.0286 45.5599 21.9635 45.8203 21.8594C46.1068 21.7552 46.3281 21.599 46.4844 21.3906C46.7448 20.5573 46.8099 19.724 46.6797 18.8906C46.5495 18.0312 46.4323 17.1849 46.3281 16.3516C46.276 16.1172 46.237 15.8568 46.2109 15.5703C46.1849 15.2839 46.1849 15.0234 46.2109 14.7891C46.237 14.5286 46.3151 14.2812 46.4453 14.0469C46.6016 13.7865 46.6276 13.487 46.5234 13.1484L46.4062 13.0703ZM79.6094 31.9375C79.4792 31.9115 79.4141 31.8203 79.4141 31.6641C79.4141 31.5078 79.362 31.4036 79.2578 31.3516C78.9193 31.3516 78.6458 31.3516 78.4375 31.3516C78.2552 31.3776 77.9818 31.3255 77.6172 31.1953C77.4609 30.8307 77.3828 30.4531 77.3828 30.0625C77.3828 29.6719 77.4479 29.2943 77.5781 28.9297C77.6302 28.7734 77.7083 28.6432 77.8125 28.5391C77.9427 28.4089 78.0339 28.2786 78.0859 28.1484C78.112 28.0182 78.099 27.875 78.0469 27.7188C78.0208 27.5625 78.0078 27.4193 78.0078 27.2891C78.0339 26.5078 78.2031 25.7396 78.5156 24.9844C78.8281 24.2031 79.0495 23.4349 79.1797 22.6797C79.2057 22.4714 79.1927 22.224 79.1406 21.9375C79.0885 21.625 79.0885 21.3646 79.1406 21.1562C79.1927 20.9219 79.2839 20.7005 79.4141 20.4922C79.5703 20.2839 79.6745 20.0495 79.7266 19.7891C79.8307 19.2682 79.8828 18.7604 79.8828 18.2656C79.9089 17.7448 80.026 17.237 80.2344 16.7422C79.349 17.6536 78.5417 18.5911 77.8125 19.5547C77.0833 20.4922 76.3932 21.5859 75.7422 22.8359C75.4557 23.4349 75.1042 23.9818 74.6875 24.4766C74.2708 24.9453 73.9193 25.5052 73.6328 26.1562C73.5807 26.2865 73.5547 26.4167 73.5547 26.5469C73.5547 26.651 73.5286 26.7682 73.4766 26.8984C73.3464 27.1849 73.1641 27.4844 72.9297 27.7969C72.7214 28.1094 72.5521 28.4609 72.4219 28.8516C72.3438 29.138 72.2526 29.4505 72.1484 29.7891C72.0703 30.1276 71.9531 30.4531 71.7969 30.7656C71.6667 31.0521 71.4974 31.2995 71.2891 31.5078C71.0807 31.7161 70.8073 31.8333 70.4688 31.8594C70.1562 31.8594 69.8958 31.7943 69.6875 31.6641C69.5052 31.5599 69.2839 31.5469 69.0234 31.625C68.6328 31.3385 68.2292 31.0781 67.8125 30.8438C67.4219 30.5833 67.1094 30.2057 66.875 29.7109C66.6146 29.2161 66.4193 28.5911 66.2891 27.8359C66.1849 27.0547 66.0547 26.3516 65.8984 25.7266C65.8464 25.5182 65.7682 25.3229 65.6641 25.1406C65.5859 24.9323 65.5339 24.75 65.5078 24.5938C65.4818 24.2812 65.4818 23.9818 65.5078 23.6953C65.5339 23.3828 65.5208 23.0833 65.4688 22.7969C65.3906 22.4844 65.2214 22.2109 64.9609 21.9766C64.7266 21.7422 64.5443 21.5208 64.4141 21.3125C64.3359 20.9219 64.2839 20.5052 64.2578 20.0625C64.2318 19.5938 64.2057 19.138 64.1797 18.6953C63.9193 18.7995 63.763 19.0078 63.7109 19.3203C63.6589 19.6328 63.5677 19.9714 63.4375 20.3359C63.3594 20.5182 63.2682 20.6875 63.1641 20.8438C63.0859 21 63.0339 21.1432 63.0078 21.2734C62.9818 21.4297 62.9948 21.5859 63.0469 21.7422C63.099 21.8984 63.112 22.0807 63.0859 22.2891C63.0599 22.4453 63.0078 22.6406 62.9297 22.875C62.8776 23.1094 62.8255 23.3307 62.7734 23.5391C62.6432 23.9036 62.487 24.2682 62.3047 24.6328C62.1224 24.9974 61.9792 25.401 61.875 25.8438C61.7188 26.2865 61.6146 26.7682 61.5625 27.2891C61.5365 27.7839 61.4583 28.2135 61.3281 28.5781C61.276 28.7344 61.1719 28.8776 61.0156 29.0078C60.8594 29.138 60.7031 29.2943 60.5469 29.4766C60.3906 29.6328 60.2474 29.8151 60.1172 30.0234C60.013 30.2318 59.9609 30.4661 59.9609 30.7266C59.6745 30.9349 59.362 31.1042 59.0234 31.2344C58.7109 31.3906 58.3333 31.5469 57.8906 31.7031C57.6562 31.7812 57.4089 31.8333 57.1484 31.8594C56.9141 31.8854 56.6927 31.8464 56.4844 31.7422C56.276 31.6641 56.1198 31.5078 56.0156 31.2734C55.9115 31.0651 55.8854 30.7656 55.9375 30.375C55.9896 30.0104 56.1068 29.6198 56.2891 29.2031C56.4974 28.7604 56.6667 28.2786 56.7969 27.7578C56.9792 27.0807 57.1354 26.4688 57.2656 25.9219C57.4219 25.375 57.6562 24.9062 57.9688 24.5156V23.7734C58.0729 23.5911 58.1641 23.4219 58.2422 23.2656C58.3203 23.0833 58.4375 22.9271 58.5938 22.7969C58.5156 22.4323 58.4896 22.0807 58.5156 21.7422C58.5677 21.4036 58.6458 21.0781 58.75 20.7656C58.8802 20.4271 59.0104 20.1146 59.1406 19.8281C59.2708 19.5156 59.388 19.2161 59.4922 18.9297C59.5964 18.6172 59.6615 18.3438 59.6875 18.1094C59.7135 17.849 59.7917 17.6146 59.9219 17.4062C59.974 17.3021 60.0651 17.224 60.1953 17.1719C60.3255 17.0938 60.4297 16.9896 60.5078 16.8594C60.638 16.625 60.7812 16.2995 60.9375 15.8828C61.1198 15.4401 61.237 15.0885 61.2891 14.8281C61.3672 14.5938 61.3932 14.3594 61.3672 14.125C61.3672 13.8646 61.3542 13.6172 61.3281 13.3828C61.3021 13.1224 61.2891 12.875 61.2891 12.6406C61.3151 12.4062 61.3932 12.1979 61.5234 12.0156C61.6016 11.8854 61.7318 11.7682 61.9141 11.6641C62.1224 11.5599 62.2917 11.4688 62.4219 11.3906C62.7083 11.2083 62.9818 11.0651 63.2422 10.9609C63.5026 10.8307 63.8151 10.7005 64.1797 10.5703C64.3099 10.5182 64.4531 10.4661 64.6094 10.4141C64.7656 10.362 64.8958 10.3359 65 10.3359C65.2865 10.3359 65.5469 10.4271 65.7812 10.6094C66.0156 10.7917 66.2891 10.9479 66.6016 11.0781C66.7318 11.1302 66.862 11.1562 66.9922 11.1562C67.1224 11.1562 67.2266 11.1693 67.3047 11.1953C67.7734 11.4036 68.1901 11.6641 68.5547 11.9766C68.9193 12.263 69.2318 12.5365 69.4922 12.7969C69.7786 13.7865 69.9089 14.8151 69.8828 15.8828C69.8828 16.9505 69.9349 17.9792 70.0391 18.9688C70.0911 19.125 70.1432 19.2812 70.1953 19.4375C70.2474 19.5938 70.2865 19.75 70.3125 19.9062C70.3385 20.1927 70.3255 20.4661 70.2734 20.7266C70.2474 20.987 70.2604 21.2474 70.3125 21.5078C70.3906 22.0286 70.5208 22.4974 70.7031 22.9141C70.9115 23.3307 71.0677 23.7865 71.1719 24.2812C71.4323 24.151 71.6406 23.9557 71.7969 23.6953C71.9531 23.4089 72.0964 23.1354 72.2266 22.875C72.487 22.3281 72.7474 21.8203 73.0078 21.3516C73.2682 20.8568 73.5807 20.388 73.9453 19.9453C74.2318 19.5547 74.4531 19.125 74.6094 18.6562C74.7656 18.1875 75.0521 17.8229 75.4688 17.5625C75.625 17.4323 75.7943 17.3542 75.9766 17.3281C76.1589 17.3021 76.3151 17.1979 76.4453 17.0156C76.5755 16.026 76.8229 15.1797 77.1875 14.4766C77.5781 13.7734 78.0208 13.0833 78.5156 12.4062C78.724 12.1458 78.9583 11.8073 79.2188 11.3906C79.5052 10.9479 79.7786 10.6745 80.0391 10.5703C80.2734 10.4661 80.5599 10.4531 80.8984 10.5312C81.263 10.5833 81.5885 10.6094 81.875 10.6094C82.2656 10.6094 82.5911 10.5573 82.8516 10.4531C83.138 10.349 83.3984 10.2448 83.6328 10.1406C83.8932 10.0365 84.1536 9.94531 84.4141 9.86719C84.7005 9.78906 85.0391 9.77604 85.4297 9.82812C85.4818 9.77604 85.5469 9.75 85.625 9.75C85.7031 9.72396 85.7812 9.6849 85.8594 9.63281C86.0938 9.73698 86.3281 9.86719 86.5625 10.0234C86.7969 10.1536 87.0052 10.3229 87.1875 10.5312C87.3958 10.7135 87.5521 10.9349 87.6562 11.1953C87.7865 11.4297 87.8385 11.6901 87.8125 11.9766C87.8125 12.1068 87.7604 12.25 87.6562 12.4062C87.5521 12.5625 87.4609 12.7448 87.3828 12.9531C87.3307 13.1094 87.2656 13.2786 87.1875 13.4609C87.1094 13.6432 87.0443 13.8125 86.9922 13.9688C86.9141 14.2552 86.9271 14.5547 87.0312 14.8672C87.1354 15.1536 87.1224 15.388 86.9922 15.5703C86.888 15.7005 86.7448 15.8047 86.5625 15.8828C86.4062 15.9609 86.2891 16.0781 86.2109 16.2344C86.0807 16.4167 85.9896 16.651 85.9375 16.9375C85.9115 17.224 85.8594 17.4844 85.7812 17.7188C85.625 18.2396 85.4688 18.7474 85.3125 19.2422C85.1823 19.737 85.0651 20.2578 84.9609 20.8047C84.8828 21.2474 84.8047 21.6771 84.7266 22.0938C84.6745 22.5104 84.5052 22.8229 84.2188 23.0312C84.1406 23.4479 84.1016 23.8646 84.1016 24.2812C84.1276 24.6719 84.1146 25.0625 84.0625 25.4531C83.9583 26.2083 83.75 26.9375 83.4375 27.6406C83.125 28.3438 82.8776 29.0339 82.6953 29.7109C82.5911 30.1016 82.5 30.4531 82.4219 30.7656C82.3698 31.0521 82.2135 31.3125 81.9531 31.5469C81.5365 31.599 81.1328 31.6771 80.7422 31.7812C80.3516 31.8854 79.974 31.9375 79.6094 31.9375ZM108.398 12.7578C107.695 13.0964 106.992 13.2656 106.289 13.2656C105.586 13.2656 104.805 13.2396 103.945 13.1875C103.711 13.1875 103.451 13.2005 103.164 13.2266C102.904 13.2526 102.656 13.2786 102.422 13.3047C101.198 13.4349 100.169 13.9036 99.3359 14.7109C98.5026 15.4922 97.8906 16.4818 97.5 17.6797C97.3698 18.1224 97.2656 18.526 97.1875 18.8906C97.1094 19.2552 97.2786 19.4635 97.6953 19.5156C97.9557 19.5677 98.2161 19.5677 98.4766 19.5156C98.737 19.4635 98.9974 19.3984 99.2578 19.3203C99.5443 19.2161 99.8177 19.125 100.078 19.0469C100.339 18.9688 100.599 18.9297 100.859 18.9297C100.964 18.9297 101.055 18.9557 101.133 19.0078C101.237 19.0599 101.341 19.0859 101.445 19.0859C101.888 19.138 102.357 19.112 102.852 19.0078C103.346 18.8776 103.802 18.8646 104.219 18.9688C104.297 18.9948 104.362 19.0469 104.414 19.125C104.492 19.1771 104.596 19.2292 104.727 19.2812C105.065 19.4115 105.469 19.5026 105.938 19.5547C106.406 19.5807 106.784 19.6589 107.07 19.7891C107.201 19.8411 107.331 19.9453 107.461 20.1016C107.591 20.2318 107.656 20.3229 107.656 20.375C107.656 20.6615 107.487 20.8438 107.148 20.9219C106.81 21 106.523 21.0521 106.289 21.0781C106.081 21.1042 105.872 21.1042 105.664 21.0781C105.456 21.0521 105.247 21.0651 105.039 21.1172C104.674 21.1693 104.323 21.2474 103.984 21.3516C103.646 21.4297 103.281 21.5339 102.891 21.6641C102.448 21.8203 102.031 22.0156 101.641 22.25C101.25 22.4583 100.82 22.5885 100.352 22.6406C100.013 22.6927 99.6875 22.6927 99.375 22.6406C99.0625 22.5885 98.724 22.5885 98.3594 22.6406C98.2292 22.6667 98.099 22.7057 97.9688 22.7578C97.8646 22.8099 97.7474 22.849 97.6172 22.875C97.3828 22.9271 97.2005 22.9661 97.0703 22.9922C96.9661 22.9922 96.875 23.0182 96.7969 23.0703C96.7448 23.1224 96.6797 23.2005 96.6016 23.3047C96.5495 23.4089 96.4583 23.5651 96.3281 23.7734C96.1198 24.2422 95.9896 24.75 95.9375 25.2969C95.8854 25.8177 95.8333 26.3776 95.7812 26.9766C96.0677 27.263 96.3411 27.4974 96.6016 27.6797C96.862 27.8359 97.2656 27.9141 97.8125 27.9141C98.099 27.9141 98.3203 27.888 98.4766 27.8359C98.6589 27.7578 98.8932 27.7057 99.1797 27.6797C99.4661 27.6797 99.7526 27.7057 100.039 27.7578C100.326 27.7839 100.651 27.7839 101.016 27.7578C101.771 27.7057 102.409 27.6146 102.93 27.4844C103.451 27.3281 104.089 27.276 104.844 27.3281C105 27.3281 105.273 27.3411 105.664 27.3672C106.081 27.3932 106.497 27.4323 106.914 27.4844C107.331 27.5104 107.695 27.5625 108.008 27.6406C108.346 27.7188 108.516 27.8229 108.516 27.9531C108.516 28.1094 108.411 28.2786 108.203 28.4609C108.021 28.6172 107.799 28.7734 107.539 28.9297C107.305 29.0599 107.057 29.1771 106.797 29.2812C106.562 29.3594 106.406 29.4115 106.328 29.4375C105.885 29.5677 105.456 29.6068 105.039 29.5547C104.622 29.4766 104.167 29.4635 103.672 29.5156C103.307 29.5677 102.982 29.6458 102.695 29.75C102.409 29.8542 102.122 29.9714 101.836 30.1016C101.549 30.2057 101.25 30.3229 100.938 30.4531C100.651 30.5573 100.312 30.6224 99.9219 30.6484C99.401 30.7005 98.9583 30.7656 98.5938 30.8438C98.2292 30.8958 97.7995 30.974 97.3047 31.0781C97.0964 31.1302 96.901 31.1823 96.7188 31.2344C96.5365 31.3125 96.3411 31.3776 96.1328 31.4297C95.3776 31.5859 94.5573 31.612 93.6719 31.5078C92.8125 31.4297 91.875 31.4427 90.8594 31.5469C90.2083 31.625 89.6224 31.7161 89.1016 31.8203C88.6068 31.9505 88.099 31.9896 87.5781 31.9375C87.3958 31.9115 87.2266 31.8854 87.0703 31.8594C86.888 31.8594 86.7318 31.7943 86.6016 31.6641C86.6536 31.4557 86.7708 31.2734 86.9531 31.1172C87.1354 30.9609 87.3177 30.8177 87.5 30.6875C87.6823 30.5312 87.8516 30.375 88.0078 30.2188C88.1901 30.0365 88.3594 29.8672 88.5156 29.7109C88.6719 29.5026 88.8021 29.2552 88.9062 28.9688C89.0104 28.6562 89.1016 28.3438 89.1797 28.0312C89.2839 27.7188 89.388 27.4323 89.4922 27.1719C89.6224 26.8854 89.7786 26.638 89.9609 26.4297C89.7526 25.9609 89.7526 25.4271 89.9609 24.8281C90.1953 24.2292 90.4036 23.6042 90.5859 22.9531C90.638 22.7969 90.6641 22.6406 90.6641 22.4844C90.6641 22.3281 90.6901 22.1849 90.7422 22.0547C90.7943 21.7943 90.9115 21.5729 91.0938 21.3906C91.276 21.1823 91.3932 20.974 91.4453 20.7656C91.4714 20.6354 91.4714 20.5052 91.4453 20.375C91.4453 20.2448 91.4583 20.1146 91.4844 19.9844C91.5365 19.5938 91.6276 19.2292 91.7578 18.8906C91.9141 18.526 92.0182 18.2005 92.0703 17.9141C92.1224 17.7057 92.1224 17.4974 92.0703 17.2891C92.0443 17.0547 92.0443 16.8333 92.0703 16.625C92.1224 16.1042 92.2266 15.6094 92.3828 15.1406C92.5651 14.6719 92.6693 14.2552 92.6953 13.8906C92.7214 13.6042 92.6823 13.2917 92.5781 12.9531C92.474 12.6146 92.3698 12.3542 92.2656 12.1719C92.1875 12.0417 92.0703 11.9115 91.9141 11.7812C91.7578 11.625 91.6016 11.4818 91.4453 11.3516C91.2891 11.2214 91.1458 11.1042 91.0156 11C90.9115 10.8698 90.8594 10.7526 90.8594 10.6484C90.8854 10.362 91.0026 10.2188 91.2109 10.2188C91.4193 10.1927 91.6146 10.1016 91.7969 9.94531C92.7344 9.97135 93.6198 10.0755 94.4531 10.2578C95.3125 10.4401 96.1979 10.5573 97.1094 10.6094C97.4479 10.6615 97.7995 10.6615 98.1641 10.6094C98.5286 10.5312 98.8802 10.4792 99.2188 10.4531C99.7656 10.4271 100.378 10.5052 101.055 10.6875C101.758 10.8698 102.448 10.9349 103.125 10.8828C104.036 10.8307 104.896 10.8047 105.703 10.8047C106.51 10.8047 107.357 10.7786 108.242 10.7266C108.398 10.8568 108.633 10.9219 108.945 10.9219C109.258 10.8958 109.57 10.8698 109.883 10.8438C110.221 10.7917 110.521 10.7786 110.781 10.8047C111.068 10.8307 111.263 10.9479 111.367 11.1562C111.523 11.5208 111.497 11.8333 111.289 12.0938C111.081 12.3542 110.794 12.5234 110.43 12.6016C110.326 12.6016 110.182 12.6146 110 12.6406C109.818 12.6667 109.622 12.6927 109.414 12.7188C109.206 12.7448 108.997 12.7578 108.789 12.7578C108.607 12.7578 108.477 12.7578 108.398 12.7578ZM124.453 14.6719C124.688 14.776 124.844 14.9193 124.922 15.1016C125 15.2578 125.052 15.4271 125.078 15.6094C125.13 15.7917 125.182 15.974 125.234 16.1562C125.286 16.3385 125.417 16.4818 125.625 16.5859C125.677 16.638 125.768 16.7031 125.898 16.7812C126.029 16.8594 126.172 16.9505 126.328 17.0547C126.484 17.1328 126.628 17.2109 126.758 17.2891C126.914 17.3411 127.031 17.3542 127.109 17.3281C127.266 17.3021 127.409 17.1849 127.539 16.9766C127.669 16.7682 127.773 16.5339 127.852 16.2734C127.956 15.987 128.021 15.7005 128.047 15.4141C128.073 15.1276 128.06 14.8932 128.008 14.7109C127.956 14.6328 127.812 14.5286 127.578 14.3984C127.344 14.2422 127.161 14.138 127.031 14.0859C126.667 13.9557 126.328 13.7995 126.016 13.6172C125.703 13.4349 125.365 13.2786 125 13.1484C124.844 13.0964 124.674 13.0182 124.492 12.9141C124.336 12.7839 124.18 12.7188 124.023 12.7188C123.919 12.6927 123.802 12.7188 123.672 12.7969C123.542 12.849 123.411 12.875 123.281 12.875C123.125 12.901 122.93 12.9141 122.695 12.9141C122.487 12.888 122.266 12.888 122.031 12.9141C121.797 12.9401 121.549 12.9792 121.289 13.0312C121.055 13.0833 120.846 13.1745 120.664 13.3047C120.326 13.5911 120.078 13.9167 119.922 14.2812C119.792 14.6198 119.609 15.0104 119.375 15.4531C119.323 15.5573 119.232 15.6745 119.102 15.8047C118.971 15.9349 118.906 16.0911 118.906 16.2734C118.906 16.3776 118.945 16.4688 119.023 16.5469C119.128 16.625 119.206 16.7422 119.258 16.8984C119.336 17.0547 119.388 17.224 119.414 17.4062C119.44 17.5625 119.479 17.7057 119.531 17.8359C119.609 17.9141 119.688 17.9922 119.766 18.0703C119.844 18.1224 119.909 18.1745 119.961 18.2266C120.039 18.3047 120.091 18.3958 120.117 18.5C120.169 18.6042 120.234 18.6823 120.312 18.7344C120.443 18.8125 120.664 18.9557 120.977 19.1641C121.315 19.3464 121.628 19.4635 121.914 19.5156C122.409 19.6198 122.852 19.7891 123.242 20.0234C123.659 20.2318 124.062 20.4141 124.453 20.5703C124.74 20.7005 124.961 20.8568 125.117 21.0391C125.299 21.1953 125.456 21.3646 125.586 21.5469C125.716 21.7031 125.846 21.8594 125.977 22.0156C126.133 22.1719 126.341 22.2891 126.602 22.3672C126.732 22.4193 126.849 22.4453 126.953 22.4453C127.057 22.4453 127.174 22.4714 127.305 22.5234C127.435 22.5755 127.565 22.6667 127.695 22.7969C127.826 22.901 127.969 23.0182 128.125 23.1484C128.229 23.2526 128.32 23.3698 128.398 23.5C128.503 23.6042 128.581 23.7083 128.633 23.8125C128.711 23.9688 128.763 24.1771 128.789 24.4375C128.815 24.6719 128.828 24.8672 128.828 25.0234C128.854 25.6484 128.841 26.1432 128.789 26.5078C128.737 26.8724 128.646 27.2109 128.516 27.5234C128.385 27.8359 128.216 28.1484 128.008 28.4609C127.826 28.7734 127.617 29.1771 127.383 29.6719C127.044 29.8281 126.693 30.0104 126.328 30.2188C125.964 30.401 125.651 30.5964 125.391 30.8047C125.26 30.9089 125.078 31.0391 124.844 31.1953C124.609 31.3516 124.401 31.4557 124.219 31.5078C123.854 31.638 123.411 31.7161 122.891 31.7422C122.37 31.7682 121.888 31.8594 121.445 32.0156C121.185 32.0938 120.872 32.1068 120.508 32.0547C120.169 32.0026 119.857 31.9896 119.57 32.0156C119.232 32.0677 118.945 32.1198 118.711 32.1719C118.477 32.25 118.203 32.263 117.891 32.2109C117.526 32.1589 117.122 32.0156 116.68 31.7812C116.237 31.5729 115.846 31.3646 115.508 31.1562C115.378 31.1042 115.273 31.0391 115.195 30.9609C115.117 30.8568 115.013 30.7656 114.883 30.6875C114.701 30.5833 114.518 30.5182 114.336 30.4922C114.154 30.4401 113.984 30.349 113.828 30.2188C113.672 30.0885 113.529 29.9714 113.398 29.8672C113.268 29.737 113.138 29.6068 113.008 29.4766C112.695 29.2682 112.344 29.0599 111.953 28.8516C111.589 28.6172 111.328 28.3828 111.172 28.1484C111.068 28.0182 111.003 27.849 110.977 27.6406C110.977 27.4062 110.924 27.1849 110.82 26.9766C110.768 26.7943 110.677 26.638 110.547 26.5078C110.417 26.3776 110.339 26.2474 110.312 26.1172C110.234 25.7526 110.273 25.349 110.43 24.9062C110.586 24.4635 110.729 24.0859 110.859 23.7734C111.354 23.6953 111.758 23.7474 112.07 23.9297C112.409 24.0859 112.695 24.3073 112.93 24.5938C113.164 24.8802 113.372 25.2057 113.555 25.5703C113.737 25.9089 113.919 26.2083 114.102 26.4688C114.31 26.8073 114.635 27.0677 115.078 27.25C115.521 27.4323 115.951 27.6146 116.367 27.7969C116.523 27.875 116.667 27.9531 116.797 28.0312C116.953 28.0833 117.096 28.1354 117.227 28.1875C117.565 28.3177 117.852 28.4609 118.086 28.6172C118.346 28.7474 118.62 28.8255 118.906 28.8516C119.167 28.8516 119.414 28.8385 119.648 28.8125C119.909 28.7604 120.195 28.7083 120.508 28.6562C120.82 28.5521 121.133 28.513 121.445 28.5391C121.758 28.5391 122.057 28.474 122.344 28.3438C122.682 28.2135 122.878 28.0573 122.93 27.875C122.982 27.6927 123.099 27.4453 123.281 27.1328C123.177 26.638 123.06 26.2865 122.93 26.0781C122.799 25.8698 122.565 25.6224 122.227 25.3359C122.096 25.2318 121.94 25.1536 121.758 25.1016C121.602 25.0234 121.458 24.9453 121.328 24.8672C120.781 24.5286 120.182 24.1901 119.531 23.8516C118.88 23.513 118.164 23.2786 117.383 23.1484C116.888 22.9922 116.367 22.7839 115.82 22.5234C115.299 22.237 114.922 21.8594 114.688 21.3906C114.609 21.2865 114.557 21.1823 114.531 21.0781C114.531 20.974 114.505 20.8568 114.453 20.7266C114.245 20.2057 113.945 19.7109 113.555 19.2422C113.19 18.7734 112.943 18.2396 112.812 17.6406C112.76 17.4583 112.747 17.276 112.773 17.0938C112.799 16.8854 112.826 16.6901 112.852 16.5078C112.904 16.3255 112.943 16.1302 112.969 15.9219C112.995 15.7135 112.982 15.4922 112.93 15.2578C113.034 15.1536 113.099 15.0495 113.125 14.9453C113.151 14.8411 113.19 14.737 113.242 14.6328C113.346 14.4766 113.411 14.3203 113.438 14.1641C113.49 13.9818 113.607 13.8125 113.789 13.6562C113.971 13.5 114.115 13.3438 114.219 13.1875C114.349 13.0052 114.479 12.862 114.609 12.7578C114.688 12.7057 114.779 12.6797 114.883 12.6797C114.987 12.6536 115.078 12.6146 115.156 12.5625C115.286 12.4844 115.404 12.3932 115.508 12.2891C115.612 12.1589 115.729 12.0417 115.859 11.9375C116.38 11.5469 116.966 11.2214 117.617 10.9609C118.268 10.6745 118.932 10.4531 119.609 10.2969C119.714 10.1667 119.883 10.0625 120.117 9.98438C120.352 9.88021 120.599 9.8151 120.859 9.78906C121.146 9.73698 121.419 9.69792 121.68 9.67188C121.94 9.64583 122.161 9.61979 122.344 9.59375C123.151 9.69792 123.789 9.82812 124.258 9.98438C124.753 10.1406 125.208 10.3099 125.625 10.4922C126.068 10.6484 126.536 10.8047 127.031 10.9609C127.526 11.1172 128.164 11.2474 128.945 11.3516C129.258 11.5859 129.583 11.8724 129.922 12.2109C130.286 12.5234 130.599 12.875 130.859 13.2656C131.12 13.6562 131.302 14.0729 131.406 14.5156C131.536 14.9323 131.51 15.362 131.328 15.8047C131.198 16.0651 131.094 16.3646 131.016 16.7031C130.938 17.0156 130.82 17.3021 130.664 17.5625C130.534 17.7708 130.391 18.0182 130.234 18.3047C130.104 18.5911 129.948 18.8255 129.766 19.0078C129.401 19.3724 128.932 19.6328 128.359 19.7891C127.786 19.9453 127.227 19.9974 126.68 19.9453C126.523 19.6849 126.276 19.4635 125.938 19.2812C125.625 19.099 125.299 18.9167 124.961 18.7344C124.648 18.526 124.349 18.3047 124.062 18.0703C123.802 17.8099 123.633 17.4974 123.555 17.1328C123.477 16.6901 123.49 16.2214 123.594 15.7266C123.724 15.2318 124.01 14.8802 124.453 14.6719ZM167.852 17.2109C167.878 17.4453 167.956 17.6276 168.086 17.7578C168.216 17.862 168.372 17.9401 168.555 17.9922C168.737 18.0443 168.932 18.0964 169.141 18.1484C169.349 18.1745 169.531 18.2266 169.688 18.3047C169.87 18.3828 170.039 18.5 170.195 18.6562C170.352 18.7865 170.521 18.9167 170.703 19.0469C170.938 19.1771 171.12 19.3203 171.25 19.4766C171.38 19.6068 171.484 19.75 171.562 19.9062C171.641 20.0625 171.706 20.2448 171.758 20.4531C171.836 20.6615 171.94 20.9089 172.07 21.1953C172.201 21.5599 172.37 21.9375 172.578 22.3281C172.786 22.7188 172.917 23.1354 172.969 23.5781C172.995 23.8125 172.982 24.0859 172.93 24.3984C172.878 24.7109 172.786 25.0365 172.656 25.375C172.552 25.6875 172.422 25.987 172.266 26.2734C172.135 26.5599 171.992 26.7812 171.836 26.9375C171.263 27.4583 170.547 27.9531 169.688 28.4219C168.854 28.8646 167.995 29.2943 167.109 29.7109C166.927 29.7891 166.745 29.8802 166.562 29.9844C166.38 30.0885 166.211 30.1797 166.055 30.2578C165.794 30.3099 165.547 30.3099 165.312 30.2578C165.104 30.1797 164.896 30.1667 164.688 30.2188C164.479 30.2448 164.31 30.3099 164.18 30.4141C164.049 30.4922 163.88 30.5573 163.672 30.6094C163.307 30.7396 162.891 30.8177 162.422 30.8438C161.979 30.8698 161.51 30.9219 161.016 31C160.833 31.0521 160.651 31.0651 160.469 31.0391C160.286 31.013 160.104 31.026 159.922 31.0781C159.531 31.1562 159.102 31.2474 158.633 31.3516C158.164 31.4557 157.669 31.5078 157.148 31.5078C156.419 31.5078 155.703 31.4818 155 31.4297C154.297 31.3776 153.568 31.3776 152.812 31.4297C152.448 31.4557 152.096 31.4297 151.758 31.3516C151.445 31.2995 151.107 31.2865 150.742 31.3125C150.013 31.3385 149.388 31.3776 148.867 31.4297C148.372 31.4818 147.891 31.5339 147.422 31.5859C146.953 31.638 146.471 31.6901 145.977 31.7422C145.482 31.8203 144.87 31.8724 144.141 31.8984C143.672 31.8984 143.19 31.8724 142.695 31.8203C142.201 31.7943 141.862 31.5599 141.68 31.1172C141.732 30.987 141.81 30.9089 141.914 30.8828C142.018 30.8307 142.083 30.7266 142.109 30.5703C142.839 30.362 143.424 30.0365 143.867 29.5938C144.284 29.125 144.727 28.4089 145.195 27.4453C145.299 27.237 145.391 27.0417 145.469 26.8594C145.547 26.6771 145.651 26.4948 145.781 26.3125C145.911 26.1042 145.99 25.9219 146.016 25.7656C146.042 25.6094 146.094 25.4531 146.172 25.2969C146.276 25.0625 146.328 24.8281 146.328 24.5938C146.354 24.3333 146.367 24.0859 146.367 23.8516C146.393 23.6172 146.432 23.3958 146.484 23.1875C146.562 22.9792 146.706 22.8099 146.914 22.6797C146.862 22.3411 146.836 21.9896 146.836 21.625C146.836 21.2604 146.914 20.8828 147.07 20.4922C147.148 20.2839 147.253 20.1146 147.383 19.9844C147.513 19.8542 147.604 19.7109 147.656 19.5547C147.734 19.2943 147.734 19.0208 147.656 18.7344C147.604 18.4219 147.63 18.0964 147.734 17.7578C147.812 17.4714 147.956 17.1719 148.164 16.8594C148.398 16.5469 148.555 16.2344 148.633 15.9219C148.763 15.375 148.841 14.8281 148.867 14.2812C148.893 13.7083 148.971 13.1224 149.102 12.5234C149.154 12.3672 149.219 12.224 149.297 12.0938C149.401 11.9635 149.479 11.8073 149.531 11.625C149.661 11.2604 149.727 10.8438 149.727 10.375C149.727 9.90625 149.766 9.45052 149.844 9.00781C149.974 8.38281 150.117 7.83594 150.273 7.36719C150.43 6.8724 150.443 6.36458 150.312 5.84375C150.208 5.45312 150 5.03646 149.688 4.59375C149.401 4.125 149.154 3.82552 148.945 3.69531C148.633 3.48698 148.307 3.34375 147.969 3.26562C147.63 3.16146 147.318 2.99219 147.031 2.75781C146.745 2.73177 146.523 2.67969 146.367 2.60156C146.237 2.52344 146.198 2.38021 146.25 2.17188C146.276 2.01562 146.38 1.88542 146.562 1.78125C146.771 1.67708 146.992 1.61198 147.227 1.58594C147.461 1.5599 147.669 1.57292 147.852 1.625C148.06 1.67708 148.203 1.78125 148.281 1.9375C148.594 1.96354 148.984 1.97656 149.453 1.97656C149.922 1.97656 150.286 2.05469 150.547 2.21094C151.042 2.1849 151.654 2.14583 152.383 2.09375C153.112 2.01562 153.763 2.05469 154.336 2.21094C154.466 2.23698 154.596 2.30208 154.727 2.40625C154.883 2.48438 155.013 2.52344 155.117 2.52344C155.352 2.4974 155.573 2.38021 155.781 2.17188C155.99 1.96354 156.211 1.83333 156.445 1.78125C156.966 1.78125 157.565 1.75521 158.242 1.70312C158.945 1.625 159.596 1.5599 160.195 1.50781C160.664 1.48177 161.159 1.49479 161.68 1.54688C162.201 1.59896 162.682 1.625 163.125 1.625C163.49 1.625 163.867 1.65104 164.258 1.70312C164.648 1.72917 165.104 1.79427 165.625 1.89844C166.25 1.97656 166.836 2.04167 167.383 2.09375C167.93 2.14583 168.49 2.27604 169.062 2.48438C169.375 2.61458 169.701 2.78385 170.039 2.99219C170.378 3.17448 170.742 3.33073 171.133 3.46094C171.549 3.64323 172.005 3.77344 172.5 3.85156C172.995 3.90365 173.385 4.00781 173.672 4.16406C173.802 4.24219 173.906 4.35938 173.984 4.51562C174.062 4.64583 174.167 4.75 174.297 4.82812C174.375 4.88021 174.479 4.91927 174.609 4.94531C174.74 4.94531 174.857 4.97135 174.961 5.02344C175.273 5.23177 175.534 5.55729 175.742 6C175.951 6.44271 176.12 6.88542 176.25 7.32812C176.354 7.64062 176.432 8.03125 176.484 8.5C176.562 8.94271 176.589 9.41146 176.562 9.90625C176.536 10.375 176.458 10.8438 176.328 11.3125C176.198 11.7552 176.003 12.1328 175.742 12.4453C175.69 12.4974 175.625 12.5625 175.547 12.6406C175.469 12.6927 175.391 12.7578 175.312 12.8359C175 13.1224 174.661 13.3958 174.297 13.6562C173.958 13.8906 173.529 14.0729 173.008 14.2031C172.93 14.5156 172.799 14.763 172.617 14.9453C172.461 15.1016 172.266 15.2318 172.031 15.3359C171.797 15.4401 171.536 15.5312 171.25 15.6094C170.99 15.6615 170.716 15.7656 170.43 15.9219C169.987 16.1562 169.57 16.4036 169.18 16.6641C168.815 16.8984 168.372 17.0807 167.852 17.2109ZM158.711 14.9062C158.971 14.8542 159.232 14.776 159.492 14.6719C159.753 14.5677 160.052 14.5026 160.391 14.4766C160.573 14.4766 160.755 14.4896 160.938 14.5156C161.146 14.5417 161.367 14.5417 161.602 14.5156C161.862 14.4896 162.161 14.4245 162.5 14.3203C162.865 14.1901 163.216 14.0469 163.555 13.8906C163.919 13.7344 164.258 13.5651 164.57 13.3828C164.883 13.1745 165.143 12.9792 165.352 12.7969C165.534 12.6406 165.716 12.4323 165.898 12.1719C166.107 11.9115 166.289 11.638 166.445 11.3516C166.602 11.0651 166.719 10.7656 166.797 10.4531C166.875 10.1406 166.901 9.84115 166.875 9.55469C166.849 9.42448 166.745 9.1901 166.562 8.85156C166.406 8.51302 166.263 8.26562 166.133 8.10938C165.924 7.875 165.573 7.58854 165.078 7.25C164.609 6.88542 164.154 6.59896 163.711 6.39062C163.607 6.33854 163.503 6.3125 163.398 6.3125C163.294 6.3125 163.177 6.28646 163.047 6.23438C162.839 6.15625 162.643 6.02604 162.461 5.84375C162.279 5.66146 162.109 5.54427 161.953 5.49219C161.38 5.36198 160.794 5.36198 160.195 5.49219C159.622 5.59635 159.232 5.81771 159.023 6.15625C158.971 6.28646 158.958 6.41667 158.984 6.54688C159.01 6.67708 158.997 6.79427 158.945 6.89844C158.867 7.02865 158.75 7.11979 158.594 7.17188C158.464 7.22396 158.372 7.35417 158.32 7.5625C158.555 7.84896 158.607 8.17448 158.477 8.53906C158.346 8.8776 158.216 9.24219 158.086 9.63281C157.878 10.388 157.682 11.1562 157.5 11.9375C157.318 12.7188 157.096 13.4609 156.836 14.1641C157.018 14.4245 157.253 14.6328 157.539 14.7891C157.852 14.9193 158.242 14.9583 158.711 14.9062ZM155.117 20.2188C154.961 20.5833 154.87 21 154.844 21.4688C154.818 21.9115 154.753 22.3672 154.648 22.8359C154.57 23.2005 154.453 23.5521 154.297 23.8906C154.141 24.2292 154.036 24.5417 153.984 24.8281C153.958 24.9583 153.945 25.0885 153.945 25.2188C153.971 25.349 153.958 25.4661 153.906 25.5703C153.828 25.8047 153.698 26.0781 153.516 26.3906C153.333 26.7031 153.281 26.9896 153.359 27.25C153.385 27.4062 153.529 27.5234 153.789 27.6016C154.049 27.6797 154.336 27.7448 154.648 27.7969C154.987 27.849 155.312 27.901 155.625 27.9531C155.964 27.9792 156.224 28.0052 156.406 28.0312C156.615 28.0833 156.836 28.0703 157.07 27.9922C157.331 27.9141 157.578 27.8229 157.812 27.7188C158.073 27.5885 158.307 27.4714 158.516 27.3672C158.75 27.263 158.945 27.1979 159.102 27.1719C159.336 27.1198 159.583 27.1328 159.844 27.2109C160.104 27.263 160.378 27.276 160.664 27.25C161.341 27.1979 161.966 26.9635 162.539 26.5469C163.112 26.1042 163.542 25.6615 163.828 25.2188C164.141 24.6458 164.336 23.9427 164.414 23.1094C164.492 22.276 164.466 21.5599 164.336 20.9609C164.284 20.7005 164.141 20.401 163.906 20.0625C163.698 19.6979 163.503 19.4505 163.32 19.3203C163.216 19.2682 163.086 19.2292 162.93 19.2031C162.799 19.151 162.669 19.0859 162.539 19.0078C162.435 18.9557 162.357 18.8906 162.305 18.8125C162.253 18.7083 162.174 18.6302 162.07 18.5781C161.888 18.5 161.641 18.474 161.328 18.5C161.016 18.5 160.716 18.4609 160.43 18.3828C160.273 18.3307 160.117 18.2656 159.961 18.1875C159.805 18.1094 159.661 18.0703 159.531 18.0703C159.323 18.0182 159.089 18.0182 158.828 18.0703C158.594 18.1224 158.346 18.1484 158.086 18.1484C157.799 18.1224 157.539 18.0964 157.305 18.0703C157.07 18.0182 156.849 18.0182 156.641 18.0703C156.146 18.1484 155.807 18.3958 155.625 18.8125C155.469 19.2292 155.299 19.6979 155.117 20.2188ZM201.523 2.32812C202.148 2.875 202.786 3.39583 203.438 3.89062C204.115 4.35938 204.674 4.91927 205.117 5.57031C205.221 5.70052 205.299 5.84375 205.352 6C205.43 6.15625 205.521 6.29948 205.625 6.42969C205.833 6.71615 206.055 7.02865 206.289 7.36719C206.523 7.70573 206.693 8.09635 206.797 8.53906C206.849 8.85156 206.849 9.1901 206.797 9.55469C206.745 9.89323 206.745 10.2448 206.797 10.6094C206.823 10.7656 206.901 10.8958 207.031 11C207.188 11.0781 207.292 11.2214 207.344 11.4297C207.422 11.7943 207.396 12.1589 207.266 12.5234C207.161 12.888 207.135 13.3047 207.188 13.7734C207.188 14.0599 207.253 14.3073 207.383 14.5156C207.539 14.6979 207.617 14.9062 207.617 15.1406C207.643 15.5052 207.604 15.8698 207.5 16.2344C207.396 16.5729 207.318 16.9115 207.266 17.25C207.057 18.3177 206.862 19.2292 206.68 19.9844C206.523 20.7396 206.237 21.5078 205.82 22.2891C205.586 22.6536 205.378 23.0312 205.195 23.4219C205.039 23.8125 204.857 24.1641 204.648 24.4766C204.102 25.3099 203.49 26.0781 202.812 26.7812C202.135 27.4583 201.523 28.1484 200.977 28.8516C199.987 29.2943 199.049 29.724 198.164 30.1406C197.279 30.5573 196.276 30.9479 195.156 31.3125C194.896 31.3906 194.635 31.4818 194.375 31.5859C194.141 31.6901 193.88 31.7812 193.594 31.8594C193.255 31.9375 192.904 31.9896 192.539 32.0156C192.174 32.0417 191.81 32.0807 191.445 32.1328C191.185 32.1849 190.924 32.25 190.664 32.3281C190.404 32.4323 190.13 32.4974 189.844 32.5234C189.557 32.5755 189.284 32.5625 189.023 32.4844C188.789 32.4062 188.529 32.3411 188.242 32.2891C188.034 32.237 187.799 32.224 187.539 32.25C187.305 32.3021 187.083 32.3151 186.875 32.2891C186.745 32.263 186.615 32.1979 186.484 32.0938C186.354 32.0156 186.198 31.9375 186.016 31.8594C185.859 31.7812 185.677 31.7292 185.469 31.7031C185.286 31.6771 185.117 31.638 184.961 31.5859C184.753 31.5078 184.557 31.4036 184.375 31.2734C184.193 31.1693 183.997 31.0911 183.789 31.0391C183.633 30.987 183.477 30.9609 183.32 30.9609C183.164 30.9609 183.021 30.9349 182.891 30.8828C182.708 30.8307 182.539 30.7266 182.383 30.5703C182.253 30.388 182.083 30.2318 181.875 30.1016C181.667 29.9714 181.458 29.8672 181.25 29.7891C181.042 29.7109 180.872 29.6198 180.742 29.5156C180.378 29.2552 180 28.8906 179.609 28.4219C179.245 27.9531 178.919 27.4583 178.633 26.9375C178.398 26.4688 178.112 25.987 177.773 25.4922C177.461 24.9974 177.214 24.4766 177.031 23.9297C176.979 23.6172 176.94 23.2786 176.914 22.9141C176.888 22.5234 176.849 22.1328 176.797 21.7422C176.745 20.987 176.719 20.2057 176.719 19.3984C176.745 18.5911 176.836 17.7057 176.992 16.7422C177.044 16.4557 177.135 16.1823 177.266 15.9219C177.396 15.6354 177.526 15.349 177.656 15.0625C177.76 14.776 177.852 14.4896 177.93 14.2031C178.034 13.9167 178.138 13.6432 178.242 13.3828C178.372 13.1484 178.555 12.9271 178.789 12.7188C179.023 12.5104 179.18 12.263 179.258 11.9766C179.336 11.6901 179.323 11.4297 179.219 11.1953C179.141 10.9609 179.128 10.6875 179.18 10.375C179.258 9.75 179.544 9.20312 180.039 8.73438C180.56 8.23958 181.042 7.73177 181.484 7.21094C182.057 6.58594 182.604 6.0651 183.125 5.64844C183.646 5.23177 184.258 4.76302 184.961 4.24219C185.065 4.1901 185.195 4.13802 185.352 4.08594C185.534 4.00781 185.703 3.91667 185.859 3.8125C185.99 3.70833 186.12 3.60417 186.25 3.5C186.38 3.36979 186.497 3.27865 186.602 3.22656C186.836 3.17448 187.07 3.17448 187.305 3.22656C187.565 3.2526 187.812 3.23958 188.047 3.1875C188.255 3.13542 188.451 3.03125 188.633 2.875C188.841 2.71875 189.036 2.54948 189.219 2.36719C189.401 2.1849 189.583 2.0026 189.766 1.82031C189.948 1.63802 190.13 1.49479 190.312 1.39062C190.391 1.33854 190.482 1.3125 190.586 1.3125C190.716 1.28646 190.833 1.2474 190.938 1.19531C191.667 0.882812 192.435 0.778646 193.242 0.882812C194.076 0.960938 194.909 1.02604 195.742 1.07812C196.367 1.13021 196.992 1.18229 197.617 1.23438C198.268 1.26042 198.867 1.35156 199.414 1.50781C199.779 1.61198 200.13 1.76823 200.469 1.97656C200.807 2.15885 201.159 2.27604 201.523 2.32812ZM194.648 26.5469C194.831 26.3646 195.013 26.1302 195.195 25.8438C195.378 25.5312 195.573 25.2318 195.781 24.9453C196.198 24.2422 196.589 23.526 196.953 22.7969C197.318 22.0417 197.682 21.2865 198.047 20.5312C198.385 19.776 198.672 18.9818 198.906 18.1484C199.167 17.2891 199.44 16.4297 199.727 15.5703C199.831 15.2839 199.987 14.9714 200.195 14.6328C200.43 14.2943 200.547 14.0078 200.547 13.7734C200.573 13.5911 200.521 13.4219 200.391 13.2656C200.286 13.0833 200.221 12.9271 200.195 12.7969C200.195 12.6146 200.195 12.4583 200.195 12.3281C200.221 12.1719 200.221 12.0156 200.195 11.8594C200.195 11.7031 200.169 11.5599 200.117 11.4297C200.065 11.2995 200.013 11.1693 199.961 11.0391C199.909 10.8047 199.87 10.5573 199.844 10.2969C199.818 10.0365 199.805 9.78906 199.805 9.55469C199.805 9.34635 199.818 9.15104 199.844 8.96875C199.87 8.76042 199.87 8.55208 199.844 8.34375C199.714 7.71875 199.44 7.1849 199.023 6.74219C198.607 6.27344 198.19 5.86979 197.773 5.53125C197.643 5.42708 197.539 5.32292 197.461 5.21875C197.383 5.08854 197.292 4.9974 197.188 4.94531C197.005 4.89323 196.797 4.85417 196.562 4.82812C196.354 4.80208 196.172 4.80208 196.016 4.82812C195.443 4.88021 194.922 5.01042 194.453 5.21875C194.01 5.40104 193.503 5.55729 192.93 5.6875C192.096 6.23438 191.198 6.85938 190.234 7.5625C189.297 8.26562 188.529 9.0599 187.93 9.94531C187.852 10.0755 187.786 10.2057 187.734 10.3359C187.708 10.4661 187.656 10.5964 187.578 10.7266C187.448 10.9349 187.305 11.1172 187.148 11.2734C186.992 11.4036 186.849 11.5729 186.719 11.7812C186.484 12.1719 186.25 12.6016 186.016 13.0703C185.781 13.5391 185.625 13.9688 185.547 14.3594C185.417 14.8802 185.339 15.4401 185.312 16.0391C185.286 16.638 185.234 17.237 185.156 17.8359C185.078 18.5651 184.987 19.2812 184.883 19.9844C184.779 20.6615 184.753 21.2995 184.805 21.8984C184.805 22.0547 184.831 22.224 184.883 22.4062C184.935 22.5625 184.974 22.7318 185 22.9141C185.078 23.5911 185.156 24.1641 185.234 24.6328C185.312 25.1016 185.521 25.5443 185.859 25.9609C185.99 26.1172 186.172 26.2604 186.406 26.3906C186.641 26.4948 186.836 26.625 186.992 26.7812C187.122 26.9115 187.214 27.0417 187.266 27.1719C187.344 27.3021 187.448 27.4193 187.578 27.5234C188.438 28.2005 189.661 28.5391 191.25 28.5391C191.745 28.2005 192.318 27.901 192.969 27.6406C193.646 27.3802 194.206 27.0156 194.648 26.5469ZM244.375 1.54688C244.245 1.83333 244.023 2.04167 243.711 2.17188C243.398 2.27604 243.086 2.39323 242.773 2.52344C242.409 2.70573 242.031 2.88802 241.641 3.07031C241.276 3.22656 240.898 3.42188 240.508 3.65625C239.779 4.04688 239.115 4.58073 238.516 5.25781C237.917 5.90885 237.318 6.54688 236.719 7.17188C236.406 7.45833 236.081 7.71875 235.742 7.95312C235.43 8.1875 235.169 8.44792 234.961 8.73438C234.674 9.02083 234.401 9.32031 234.141 9.63281C233.88 9.94531 233.581 10.2448 233.242 10.5312C233.008 10.7135 232.773 10.8698 232.539 11C232.305 11.1302 232.135 11.2865 232.031 11.4688C231.979 11.5208 231.94 11.638 231.914 11.8203C231.888 11.9766 231.849 12.1068 231.797 12.2109C231.667 12.4974 231.471 12.7448 231.211 12.9531C230.951 13.1354 230.716 13.3568 230.508 13.6172C230.404 13.7474 230.312 13.8776 230.234 14.0078C230.182 14.112 230.104 14.2292 230 14.3594C229.87 14.4896 229.727 14.6198 229.57 14.75C229.414 14.8542 229.271 14.9714 229.141 15.1016C228.932 15.3359 228.724 15.5833 228.516 15.8438C228.307 16.0781 228.047 16.3255 227.734 16.5859C227.474 16.8203 227.174 17.0938 226.836 17.4062C226.523 17.7188 226.341 17.9531 226.289 18.1094C226.263 18.2656 226.289 18.4349 226.367 18.6172C226.445 18.7995 226.536 18.9948 226.641 19.2031C226.745 19.3854 226.849 19.5677 226.953 19.75C227.057 19.9323 227.135 20.1016 227.188 20.2578C227.318 20.5182 227.422 20.8177 227.5 21.1562C227.604 21.4688 227.708 21.7812 227.812 22.0938C227.943 22.4062 228.086 22.7057 228.242 22.9922C228.424 23.2786 228.542 23.5651 228.594 23.8516C228.646 24.138 228.672 24.4245 228.672 24.7109C228.698 24.9714 228.75 25.2057 228.828 25.4141C228.932 25.6224 229.076 25.8047 229.258 25.9609C229.44 26.1172 229.609 26.2995 229.766 26.5078C229.922 26.7161 230.052 26.9245 230.156 27.1328C230.286 27.3411 230.456 27.5104 230.664 27.6406C230.794 28.0052 230.911 28.3828 231.016 28.7734C231.146 29.138 231.328 29.4635 231.562 29.75C231.693 29.9062 231.836 30.1016 231.992 30.3359C232.148 30.5443 232.305 30.7135 232.461 30.8438C232.591 30.9479 232.734 31.013 232.891 31.0391C233.047 31.0651 233.177 31.1432 233.281 31.2734C233.385 31.3516 233.451 31.4557 233.477 31.5859C233.529 31.7161 233.594 31.8464 233.672 31.9766C233.88 32.237 234.167 32.4714 234.531 32.6797C234.896 32.9141 235.234 33.1615 235.547 33.4219C235.833 33.6823 236.094 33.9167 236.328 34.125C236.562 34.3333 236.888 34.5417 237.305 34.75C237.383 34.8021 237.474 34.8281 237.578 34.8281C237.708 34.8281 237.826 34.8542 237.93 34.9062C238.112 34.9583 238.268 35.0495 238.398 35.1797C238.529 35.3099 238.737 35.362 239.023 35.3359C239.414 35.4922 239.688 35.5833 239.844 35.6094C240 35.6615 240.13 35.7266 240.234 35.8047C240.365 35.9089 240.482 36.013 240.586 36.1172C240.69 36.2214 240.807 36.2995 240.938 36.3516C241.198 36.2214 241.51 36.2083 241.875 36.3125C242.24 36.4167 242.604 36.4557 242.969 36.4297C243.255 36.4036 243.477 36.3646 243.633 36.3125C243.789 36.2865 243.932 36.2344 244.062 36.1562C244.193 36.1042 244.323 36.0521 244.453 36C244.609 35.974 244.818 35.9479 245.078 35.9219C245.391 35.8958 245.703 35.7656 246.016 35.5312C246.328 35.2969 246.654 35.1016 246.992 34.9453C247.253 34.8151 247.5 34.7109 247.734 34.6328C247.995 34.5807 248.268 34.5026 248.555 34.3984C248.763 34.3203 248.984 34.2161 249.219 34.0859C249.479 33.9818 249.753 33.9818 250.039 34.0859C250.065 34.5026 249.922 34.8802 249.609 35.2188C249.323 35.5573 249.036 35.8438 248.75 36.0781C248.255 36.4688 247.734 36.7943 247.188 37.0547C246.641 37.3411 246.185 37.7188 245.82 38.1875C244.831 38.6042 243.789 39.0078 242.695 39.3984C241.628 39.8151 240.469 40.1016 239.219 40.2578C238.724 40.3099 238.281 40.2708 237.891 40.1406C237.5 40.0365 237.161 39.8802 236.875 39.6719C236.693 39.776 236.497 39.8542 236.289 39.9062C236.107 39.9844 235.951 40.1146 235.82 40.2969C235.664 40.1406 235.456 40.1016 235.195 40.1797C234.961 40.2578 234.714 40.2839 234.453 40.2578C234.167 40.2057 233.919 40.1016 233.711 39.9453C233.529 39.8151 233.359 39.6849 233.203 39.5547C232.917 39.6068 232.708 39.5807 232.578 39.4766C232.448 39.3984 232.279 39.3073 232.07 39.2031C231.237 38.8385 230.482 38.3568 229.805 37.7578C229.128 37.1849 228.411 36.625 227.656 36.0781C227.448 35.9219 227.214 35.7786 226.953 35.6484C226.719 35.5182 226.51 35.375 226.328 35.2188C226.224 35.0885 226.133 34.9453 226.055 34.7891C226.003 34.6328 225.911 34.4635 225.781 34.2812C225.625 34.0469 225.456 33.7995 225.273 33.5391C225.117 33.3047 225.052 32.9792 225.078 32.5625C224.583 32.3281 224.154 32.0026 223.789 31.5859C223.451 31.1693 223.151 30.7005 222.891 30.1797C222.63 29.6589 222.396 29.125 222.188 28.5781C221.979 28.0312 221.758 27.4974 221.523 26.9766C221.471 26.8464 221.393 26.7552 221.289 26.7031C221.211 26.625 221.146 26.5469 221.094 26.4688C220.781 25.9479 220.508 25.4271 220.273 24.9062C220.039 24.3594 219.779 23.8516 219.492 23.3828C218.685 24.2422 217.878 25.1016 217.07 25.9609C216.263 26.7943 215.312 27.4974 214.219 28.0703C213.906 28.4349 213.542 28.7474 213.125 29.0078C212.734 29.2422 212.331 29.4896 211.914 29.75C211.523 29.9844 211.12 30.2318 210.703 30.4922C210.312 30.7526 209.961 31.0521 209.648 31.3906C209.362 31.5208 209.062 31.651 208.75 31.7812C208.438 31.9375 208.06 32.0156 207.617 32.0156C207.357 32.0156 207.044 32.0417 206.68 32.0938C206.289 32.1719 205.924 32.224 205.586 32.25C205.221 32.3021 204.909 32.3021 204.648 32.25C204.388 32.1979 204.258 32.0677 204.258 31.8594C204.258 31.7292 204.336 31.5599 204.492 31.3516C204.622 31.1693 204.792 30.987 205 30.8047C205.208 30.5964 205.404 30.4141 205.586 30.2578C205.768 30.0755 205.898 29.9453 205.977 29.8672C206.133 29.7109 206.289 29.5547 206.445 29.3984C206.602 29.2422 206.745 29.0859 206.875 28.9297C207.266 28.487 207.682 28.0312 208.125 27.5625C208.542 27.0938 208.971 26.638 209.414 26.1953C209.701 25.987 209.974 25.7917 210.234 25.6094C210.521 25.4271 210.742 25.1927 210.898 24.9062C210.951 24.776 211.003 24.6458 211.055 24.5156C211.107 24.3854 211.159 24.2552 211.211 24.125C211.471 23.7604 211.771 23.4609 212.109 23.2266C212.448 22.9661 212.773 22.7318 213.086 22.5234C213.216 22.3932 213.346 22.263 213.477 22.1328C213.633 21.9766 213.776 21.8203 213.906 21.6641C214.036 21.5078 214.18 21.3646 214.336 21.2344C214.492 21.1042 214.635 20.974 214.766 20.8438C214.844 20.7396 214.896 20.6354 214.922 20.5312C214.974 20.401 215.039 20.2708 215.117 20.1406C215.326 19.8802 215.586 19.6458 215.898 19.4375C216.211 19.2292 216.458 18.9818 216.641 18.6953C216.432 17.9661 216.276 17.25 216.172 16.5469C216.068 15.8177 215.859 15.0885 215.547 14.3594C215.443 14.125 215.326 13.9036 215.195 13.6953C215.065 13.4609 214.948 13.2396 214.844 13.0312C214.635 12.5104 214.44 12.0026 214.258 11.5078C214.102 11.013 213.906 10.5443 213.672 10.1016C213.568 9.89323 213.451 9.69792 213.32 9.51562C213.19 9.33333 213.06 9.15104 212.93 8.96875C212.695 8.57812 212.487 8.1875 212.305 7.79688C212.148 7.38021 211.966 6.97656 211.758 6.58594C211.68 6.45573 211.576 6.35156 211.445 6.27344C211.315 6.16927 211.224 6.05208 211.172 5.92188C211.068 5.71354 210.99 5.47917 210.938 5.21875C210.911 4.93229 210.833 4.64583 210.703 4.35938C210.625 4.17708 210.521 3.99479 210.391 3.8125C210.26 3.63021 210.208 3.44792 210.234 3.26562C210.26 3.10938 210.391 2.91406 210.625 2.67969C210.859 2.44531 211.12 2.30208 211.406 2.25C211.484 2.22396 211.576 2.22396 211.68 2.25C211.784 2.25 211.888 2.22396 211.992 2.17188C212.096 2.14583 212.253 2.09375 212.461 2.01562C212.669 1.91146 212.878 1.82031 213.086 1.74219C213.294 1.63802 213.49 1.5599 213.672 1.50781C213.88 1.42969 214.036 1.39062 214.141 1.39062C214.323 1.39062 214.427 1.46875 214.453 1.625C214.505 1.78125 214.596 1.9375 214.727 2.09375C214.935 2.38021 215.195 2.66667 215.508 2.95312C215.82 3.21354 216.146 3.44792 216.484 3.65625C216.536 3.60417 216.536 3.51302 216.484 3.38281C216.458 3.22656 216.51 3.1224 216.641 3.07031C217.057 2.86198 217.435 2.75781 217.773 2.75781C218.138 2.73177 218.477 2.88802 218.789 3.22656C219.18 3.66927 219.557 4.28125 219.922 5.0625C220.286 5.81771 220.612 6.5599 220.898 7.28906C221.029 7.57552 221.172 7.8099 221.328 7.99219C221.484 8.17448 221.589 8.36979 221.641 8.57812C221.719 8.83854 221.745 9.09896 221.719 9.35938C221.719 9.59375 221.771 9.78906 221.875 9.94531C221.979 10.1276 222.109 10.2578 222.266 10.3359C222.448 10.4141 222.591 10.4922 222.695 10.5703C222.852 11.1693 222.969 11.6901 223.047 12.1328C223.125 12.5755 223.333 13.0573 223.672 13.5781C224.115 13.3438 224.505 13.0573 224.844 12.7188C225.182 12.3542 225.495 11.9766 225.781 11.5859C226.094 11.1953 226.406 10.8047 226.719 10.4141C227.031 10.0234 227.37 9.67188 227.734 9.35938C228.021 9.17708 228.281 8.99479 228.516 8.8125C228.776 8.63021 229.01 8.4349 229.219 8.22656C229.245 7.83594 229.349 7.4974 229.531 7.21094C229.74 6.92448 229.974 6.66406 230.234 6.42969C230.495 6.19531 230.768 5.97396 231.055 5.76562C231.341 5.53125 231.602 5.28385 231.836 5.02344C232.044 4.76302 232.24 4.46354 232.422 4.125C232.604 3.78646 232.799 3.47396 233.008 3.1875C233.086 3.10938 233.164 3.03125 233.242 2.95312C233.346 2.875 233.424 2.8099 233.477 2.75781C233.529 2.6276 233.581 2.48438 233.633 2.32812C233.685 2.14583 233.737 2.01562 233.789 1.9375C234.076 1.57292 234.518 1.35156 235.117 1.27344C235.742 1.16927 236.354 1.14323 236.953 1.19531C237.24 1.22135 237.63 1.28646 238.125 1.39062C238.646 1.46875 239.049 1.52083 239.336 1.54688C239.701 1.57292 240.091 1.57292 240.508 1.54688C240.951 1.49479 241.38 1.44271 241.797 1.39062C242.031 1.36458 242.279 1.3125 242.539 1.23438C242.799 1.15625 243.034 1.10417 243.242 1.07812C243.477 1.05208 243.685 1.0651 243.867 1.11719C244.076 1.16927 244.245 1.3125 244.375 1.54688Z" fill="white"/>
</svg>
