<svg width="52" height="52" viewBox="0 0 52 52" fill="none" xmlns="http://www.w3.org/2000/svg">
<path d="M31.2175 36.2518C31.2175 36.2518 35.2665 33.9338 36.3265 33.3768C37.3835 32.8178 38.4785 32.6768 39.1435 33.0828C40.1505 33.6988 48.6065 39.3238 49.3185 39.8218C50.0305 40.3208 50.3735 41.7458 49.3945 43.1418C48.4195 44.5378 43.9215 50.0578 42.0155 49.9988C40.1065 49.9368 32.1695 49.7628 17.2025 34.7918C2.2385 19.8258 2.0615 11.8868 2.0005 9.97776C1.9395 8.06976 7.4595 3.57076 8.8555 2.59476C10.2535 1.61976 11.6805 1.98676 12.1765 2.67276C12.7405 3.45376 18.3005 11.8828 18.9125 12.8488C19.3315 13.5088 19.1775 14.6098 18.6185 15.6678C18.0625 16.7278 15.7445 20.7768 15.7445 20.7768C15.7445 20.7768 17.3785 23.5638 22.9045 29.0888C28.4315 34.6148 31.2175 36.2518 31.2175 36.2518Z" stroke="white" stroke-width="3" stroke-miterlimit="10"/>
</svg>
